# Blender v3.0.1 OBJ File: ''
# www.blender.org
mtllib goldkey.mtl
o legendofzeldabosskey_fixed
v 5.954000 0.000000 29.538002
v 6.206000 0.000000 28.500002
v 6.248000 0.000000 28.770000
v 6.184000 0.000000 30.380001
v 5.374000 0.000000 30.786001
v -0.050000 3.384000 54.032001
v -1.376000 3.748000 55.330002
v -0.800000 3.176000 55.330002
v 5.802000 0.000000 31.950001
v 4.560000 0.000000 31.900002
v 4.900000 -0.002000 -8.778001
v 3.718000 -0.002000 -10.220000
v 8.224000 -0.002000 -10.998000
v -2.236000 3.176000 56.196003
v 6.544000 -0.002000 -13.044001
v 2.278000 -0.002000 -11.400001
v 4.500000 -0.002000 -14.724001
v 5.122000 0.000000 33.418003
v 3.542000 0.000000 32.834003
v 4.164000 0.000000 34.726002
v 2.364000 0.000000 33.556000
v 2.968000 0.000000 35.826000
v -2.702000 3.384000 56.196003
v 1.064000 0.000000 34.038002
v 1.580000 0.000000 36.676003
v 7.268000 0.000000 38.200001
v 7.574000 0.000000 36.856003
v 7.626000 0.000000 37.204002
v 5.780000 -0.002000 -7.136000
v 6.320000 -0.002000 -5.354000
v 10.240001 -0.002000 -6.132000
v 6.502000 -0.002000 -3.498000
v 10.500001 -0.002000 -3.498000
v 10.240001 -0.002000 -0.864000
v 6.320000 -0.002000 -1.646000
v 9.472000 -0.002000 1.666000
v 5.780000 -0.002000 0.138000
v 7.548000 0.000000 39.288002
v 3.718000 -0.002000 3.220000
v 4.500000 -0.002000 7.726000
v 2.278000 -0.002000 4.402000
v 6.564000 0.000000 39.814003
v 7.086000 0.000000 41.320004
v 5.576000 0.000000 41.254002
v 6.256001 0.000000 43.218002
v 4.340000 0.000000 42.464001
v 5.094000 0.000000 44.912003
v 8.224000 -0.002000 4.000000
v 4.900000 -0.002000 1.780000
v 2.906000 0.000000 43.398003
v 3.640000 0.000000 46.334003
v 6.544000 -0.002000 6.046000
v 1.330000 0.000000 44.020000
v 2.164000 -0.002000 8.974000
v 0.636000 -0.002000 5.280000
v 0.636000 -0.002000 -12.278001
v 0.054000 0.000000 37.240002
v -0.302000 0.000000 34.258003
v 1.954000 0.000000 47.434002
v -0.366000 5.000000 -16.740002
v -1.146000 5.000000 -12.818001
v 0.636000 5.000000 -12.278001
v -1.146000 -0.002000 -12.818001
v -0.366000 -0.002000 -16.740002
v 0.100000 0.000000 48.164001
v -0.330000 0.000000 44.306004
v 2.164000 -0.002000 -15.972001
v 1.184000 5.000000 -9.162001
v 1.184000 0.000000 -9.162001
v -0.868000 5.000000 -9.788000
v -1.924000 2.864000 56.196003
v -1.554000 0.000000 37.500000
v -5.634000 -0.002000 -16.740002
v -3.000000 -0.002000 -17.000000
v -3.000000 -0.002000 -13.002001
v -3.250000 2.500000 56.502003
v -2.500000 0.000000 37.470001
v -1.684000 0.000000 34.212002
v -2.500000 0.000000 34.022003
v -4.854000 -0.002000 -12.818001
v -6.638000 -0.002000 -12.278001
v -3.000000 0.000000 48.460003
v -3.000000 0.000000 43.998001
v -2.008000 0.000000 44.244003
v -0.254000 5.000000 -6.282000
v 0.986000 5.000000 -5.772000
v -1.852000 0.000000 48.502003
v 6.206000 5.000000 28.500002
v 5.954000 5.000000 29.538002
v 6.248000 5.000000 28.770000
v 4.560000 5.000000 31.900002
v 5.802000 5.000000 31.950001
v 5.374000 5.000000 30.786001
v 6.184000 5.000000 30.380001
v -2.236000 4.132000 55.330002
v -3.250000 3.456000 56.196003
v -0.254000 0.000000 -6.282000
v 0.986000 0.000000 -5.772000
v 2.364000 5.000000 33.556000
v 4.164000 5.000000 34.726002
v 3.542000 5.000000 32.834003
v -0.366000 -0.002000 9.742001
v -1.146000 -0.002000 5.820000
v -3.000000 -0.002000 6.004000
v -3.000000 -0.002000 10.002001
v -5.634000 -0.002000 9.742001
v 1.064000 5.000000 34.038002
v 2.968000 5.000000 35.826000
v 5.122000 5.000000 33.418003
v -3.800000 3.384000 56.196003
v 10.240001 0.000000 -0.864000
v 10.500001 0.000000 -3.498000
v -4.266000 3.176000 56.196003
v 10.180000 0.000000 -0.666000
v 9.472000 5.000000 1.666000
v 1.580000 5.000000 36.676003
v -4.576000 2.864000 56.196003
v 7.574000 5.000000 36.856003
v 7.268000 5.000000 38.200001
v 7.626000 5.000000 37.204002
v 6.564000 5.000000 39.814003
v 7.548000 5.000000 39.288002
v 5.576000 5.000000 41.254002
v 7.086000 5.000000 41.320004
v 4.340000 5.000000 42.464001
v 6.256001 5.000000 43.218002
v 1.138000 3.456000 10.500001
v 1.500000 2.500000 10.500001
v 0.498000 2.500000 10.500001
v 0.214000 3.456000 10.500001
v 2.906000 5.000000 43.398003
v 5.094000 5.000000 44.912003
v 0.108000 4.268000 13.502001
v 1.138000 3.456000 13.502001
v 1.330000 5.000000 44.020000
v 3.640000 5.000000 46.334003
v 1.138000 1.542000 10.500001
v 1.500000 2.500000 13.502001
v 1.138000 1.542000 13.502001
v 1.954000 5.000000 47.434002
v -1.816000 0.188000 52.500004
v -0.800000 0.864000 54.032001
v -1.924000 0.364000 54.032001
v 1.498000 2.500000 14.500001
v 1.138000 1.542000 14.500001
v 0.498000 2.500000 14.500001
v 0.214000 3.456000 14.500001
v 1.138000 3.456000 14.500001
v 0.108000 4.268000 17.500000
v 1.138000 3.456000 17.500000
v 1.498000 2.500000 17.500000
v -1.814000 0.190000 52.500004
v -0.598000 0.730000 52.500004
v 1.138000 1.542000 17.500000
v -1.376000 1.250000 55.330002
v 10.370001 0.000000 -4.810000
v 6.400000 0.000000 -4.528000
v 6.502000 0.000000 -3.498000
v 0.498000 2.500000 48.008003
v 0.214000 1.542000 48.120003
v -0.050000 1.616000 54.032001
v -0.800000 1.822000 55.330002
v -1.924000 2.134000 56.196003
v -2.236000 1.822000 56.196003
v 0.498000 2.500000 37.076000
v 0.214000 1.542000 37.182003
v 6.400000 0.000000 -2.472000
v 8.224000 5.000000 4.000000
v 6.544000 5.000000 6.046000
v 2.164000 5.000000 8.974000
v 0.498000 2.500000 9.480000
v -5.748000 0.000000 -0.716000
v -6.988000 0.000000 -1.226000
v -6.988000 5.000000 -1.226000
v -5.748000 0.000000 -6.282000
v -6.988000 5.000000 -5.772000
v -6.988000 0.000000 -5.772000
v 3.718000 5.000000 3.220000
v -4.266000 1.822000 56.196003
v -3.800000 1.616000 56.196003
v 0.498000 2.500000 34.130001
v -8.166000 5.000000 8.974000
v -5.634000 5.000000 9.742001
v -6.638000 5.000000 5.280000
v -3.250000 0.188000 54.032001
v -2.236000 0.864000 55.330002
v -3.250000 0.730000 55.330002
v 0.498000 2.500000 44.164001
v -3.000000 5.000000 -17.000000
v -3.250000 1.542000 56.196003
v -3.250000 0.000000 52.500004
v -4.854000 5.000000 5.820000
v -1.146000 5.000000 5.820000
v -3.000000 5.000000 6.004000
v -0.366000 5.000000 9.742001
v -4.854000 5.000000 -12.818001
v -6.638000 5.000000 -12.278001
v -2.702000 1.616000 56.196003
v -3.000000 5.000000 3.002000
v -3.000000 0.000000 3.002000
v -0.868000 0.000000 2.790000
v -0.868000 5.000000 2.790000
v -0.366000 0.962000 9.742001
v -5.134000 5.000000 2.790000
v -5.134000 0.000000 2.790000
v -1.816000 4.808000 52.500004
v -1.852000 4.814000 48.502003
v -1.818000 4.810000 52.500004
v -3.250000 5.000000 52.500004
v -3.000000 0.032000 10.002001
v -3.250000 0.000000 9.978001
v 0.214000 3.456000 52.500004
v 0.100000 3.568000 48.164001
v 0.212000 3.458000 52.500004
v -0.598000 4.268000 48.286003
v -4.854000 -0.002000 5.820000
v -6.638000 -0.002000 5.280000
v -0.598000 0.730000 48.286003
v 0.214000 1.542000 52.500004
v -1.816000 0.188000 48.496002
v 2.278000 5.000000 4.402000
v -5.134000 5.000000 -9.788000
v -4.400000 5.000000 -6.596000
v -3.000000 5.000000 -10.000000
v -1.852000 0.184000 48.502003
v -3.000000 5.000000 -13.002001
v -5.634000 5.000000 -16.740002
v -4.686000 4.808000 52.500004
v -5.700000 4.132000 54.032001
v -4.576000 4.632000 54.032001
v -5.902000 4.268000 52.500004
v -0.868000 0.000000 -9.788000
v -5.126000 3.748000 55.330002
v 8.698000 0.000000 -20.270000
v 7.352000 0.000000 -20.576000
v 7.702000 0.000000 -20.628000
v -4.266000 4.132000 55.330002
v 9.788000 0.000000 -20.550001
v 10.312000 0.000000 -19.566000
v 11.816001 0.000000 -20.088001
v 13.716001 0.000000 -19.260000
v 11.750001 0.000000 -18.576000
v -0.598000 4.268000 34.248001
v -0.302000 3.970000 34.258003
v -0.002000 3.670000 23.000002
v -3.000000 0.000000 -10.000000
v -5.134000 0.000000 -9.788000
v -6.452000 3.384000 54.032001
v 0.214000 1.542000 22.894001
v 0.214000 1.542000 34.176003
v 0.000000 1.328000 23.000002
v 12.960001 0.000000 -17.342001
v 16.832001 0.000000 -16.642000
v 13.894001 0.000000 -15.908001
v 15.408001 0.000000 -18.096001
v -7.002000 2.500000 52.500004
v -6.452000 1.616000 54.032001
v -6.716001 2.500000 54.032001
v -7.186000 5.000000 2.164000
v -5.748000 5.000000 -0.716000
v -3.000000 4.966000 48.460003
v -3.000000 4.966000 43.998001
v -2.500000 4.900000 34.022003
v -1.816000 4.808000 34.182003
v -3.250000 5.000000 24.632002
v -1.600000 5.000000 -0.404000
v 0.054000 5.000000 37.240002
v -0.302000 5.000000 34.258003
v -3.000000 5.000000 -0.298000
v -4.400000 5.000000 -0.404000
v 2.966000 0.000000 -2.746000
v 4.730000 0.000000 -0.220000
v 2.074000 0.000000 -1.910000
v -4.576000 2.134000 56.196003
v -4.686000 2.500000 56.196003
v -5.902000 2.500000 55.330002
v 0.100000 5.000000 48.164001
v -0.330000 5.000000 44.306004
v -5.748000 5.000000 -6.282000
v -7.184000 5.000000 -9.162001
v -2.500000 5.000000 37.470001
v -1.554000 5.000000 37.500000
v -1.684000 5.000000 34.212002
v -2.500000 5.000000 34.022003
v -3.000000 5.000000 -6.700000
v -1.600000 5.000000 -6.596000
v -3.250000 4.268000 55.330002
v -0.254000 5.000000 -0.716000
v 0.986000 5.000000 -1.226000
v 0.986000 0.000000 -1.226000
v -0.254000 0.000000 -0.716000
v -1.376000 5.000000 -0.456000
v -1.852000 5.000000 48.502003
v -2.008000 5.000000 44.244003
v -3.000000 5.000000 48.460003
v -3.000000 5.000000 43.998001
v -6.716001 3.456000 52.500004
v -1.376000 5.000000 -6.542000
v -1.376000 0.000000 -6.542000
v -4.626000 5.000000 -6.542000
v -5.902000 0.730000 52.500004
v -6.716001 1.542000 52.500004
v -6.276000 1.102000 22.864000
v -5.700000 3.176000 55.330002
v -1.482000 5.000000 -4.376000
v -0.526000 5.000000 -5.974000
v -2.124000 5.000000 -5.018000
v -3.878000 5.000000 -5.018000
v -3.000000 5.000000 -5.252000
v -5.476000 5.000000 -5.974000
v -4.518000 5.000000 -4.376000
v -6.834000 3.060000 52.500004
v 0.214000 3.456000 34.176003
v -4.754000 5.000000 -3.498000
v -6.234000 5.000000 -2.160000
v -4.518000 5.000000 -2.622000
v -5.476000 5.000000 -1.024000
v -3.878000 5.000000 -1.980000
v 14.516001 0.000000 -14.332001
v -0.598000 0.730000 17.500000
v -0.598000 0.730000 34.248001
v -0.302000 1.028000 34.258003
v -1.816000 0.188000 34.182003
v -1.684000 0.248000 34.212002
v 14.802001 0.000000 -12.672001
v 17.930000 0.000000 -14.956000
v 14.742001 0.000000 -10.994000
v 18.926001 0.000000 -9.174001
v 14.338000 0.000000 -9.358001
v 0.232000 5.000000 -2.160000
v -1.248000 5.000000 -3.498000
v -1.482000 5.000000 -2.622000
v 0.214000 3.456000 48.120003
v 0.498000 2.500000 52.500004
v 18.450001 0.000000 -7.254000
v 13.602000 0.000000 -7.834001
v 17.586000 0.000000 -5.460000
v 16.370001 0.000000 -3.860000
v -5.700000 1.822000 55.330002
v -5.700000 0.864000 54.032001
v -0.526000 5.000000 -1.024000
v 0.100000 1.430000 48.164001
v 14.844001 0.000000 -2.520000
v 12.566001 0.000000 -6.474000
v -5.126000 1.250000 55.330002
v 0.232000 5.000000 -4.840000
v 0.498000 5.000000 -3.498000
v 11.272000 0.000000 -5.334000
v -2.124000 5.000000 -1.980000
v -3.000000 5.000000 -1.746000
v 0.214000 3.456000 44.212002
v 0.214000 3.456000 37.182003
v 0.054000 3.616000 37.240002
v -4.686000 0.188000 52.500004
v -4.576000 0.364000 54.032001
v 6.090000 0.000000 -5.110000
v 2.966000 0.000000 -4.254000
v 4.730000 0.000000 -6.776000
v -6.234000 5.000000 -4.840000
v -6.502000 5.000000 -3.498000
v -4.266000 0.864000 55.330002
v -6.234000 0.000000 -2.160000
v -6.502000 0.000000 -3.498000
v 3.494000 0.000000 -3.498000
v -4.626000 5.000000 -0.456000
v -4.626000 0.000000 -0.456000
v -5.476000 0.000000 -1.024000
v 2.074000 0.000000 -5.088000
v 0.214000 1.542000 44.212002
v 0.054000 1.382000 37.240002
v -1.376000 0.000000 -0.456000
v -0.526000 0.000000 -1.024000
v -4.684000 0.188000 52.500004
v 0.232000 0.000000 -2.160000
v 0.498000 0.000000 -3.498000
v 18.662001 0.000000 -13.102000
v 19.000000 0.000000 -11.150001
v 0.214000 3.456000 22.894001
v 0.498000 2.500000 22.750002
v 0.232000 0.000000 -4.840000
v 3.998000 2.504000 20.994001
v 0.000000 3.998000 23.000002
v 0.000000 0.998000 23.000002
v -0.526000 0.000000 -5.974000
v 6.090000 0.000000 -1.888000
v -18.962002 0.000000 -17.344002
v -19.718000 0.000000 -19.260000
v -17.752001 0.000000 -18.578001
v -19.896002 0.000000 -15.910001
v -21.410002 0.000000 -18.096001
v -4.626000 0.000000 -6.542000
v -20.518002 0.000000 -14.332001
v -22.834002 0.000000 -16.644001
v -20.804001 0.000000 -12.672001
v -23.932001 0.000000 -14.958001
v -17.818001 0.000000 -20.088001
v -5.476000 0.000000 -5.974000
v -0.330000 0.998000 44.306004
v -6.234000 0.000000 -4.840000
v -1.482000 0.000000 -4.376000
v -1.248000 0.000000 -3.498000
v -2.124000 0.000000 -5.018000
v -3.000000 0.000000 -5.252000
v -19.074001 0.000000 -1.490000
v -20.846001 0.000000 -2.522000
v -17.272001 0.000000 -5.336000
v -17.120001 0.000000 -0.808000
v -16.502001 0.000000 -3.498000
v -3.878000 0.000000 -5.018000
v -6.716001 3.456000 22.644001
v -6.716001 3.454000 52.500004
v -24.664001 0.000000 -13.102000
v -25.000002 0.000000 -11.152000
v -20.744001 0.000000 -10.994000
v -24.452002 0.000000 -7.254000
v -24.928001 0.000000 -9.176001
v -20.338001 0.000000 -9.360001
v -22.370001 0.000000 -3.862000
v -23.588001 0.000000 -5.460000
v -19.604000 0.000000 -7.834001
v -18.568001 0.000000 -6.474000
v -4.518000 0.000000 -4.376000
v -17.818001 5.000000 -20.088001
v -19.718000 5.000000 -19.260000
v -17.752001 5.000000 -18.578001
v -16.314001 5.000000 -19.566000
v -4.754000 0.000000 -3.498000
v 13.070001 0.000000 -1.488000
v 11.118001 0.000000 -0.806000
v -18.962002 5.000000 -17.344002
v -21.410002 5.000000 -18.096001
v -19.896002 5.000000 -15.910001
v -4.518000 0.000000 -2.622000
v -22.834002 5.000000 -16.644001
v -20.518002 5.000000 -14.332001
v -3.878000 0.000000 -1.980000
v -23.932001 5.000000 -14.958001
v -3.000000 0.032000 48.460003
v -3.000000 0.000000 -1.746000
v -19.604000 5.000000 -7.834001
v -22.370001 5.000000 -3.862000
v -18.568001 5.000000 -6.474000
v -2.124000 0.000000 -1.980000
v -1.816000 4.808000 48.496002
v -0.598000 4.268000 52.500004
v -1.482000 0.000000 -2.622000
v -17.120001 5.000000 -0.808000
v -16.502001 5.000000 -3.498000
v -19.074001 5.000000 -1.490000
v 1.184000 0.000000 2.164000
v 3.074000 0.000000 1.146000
v -5.068000 0.188000 13.502001
v -3.250000 -0.002000 13.502001
v -4.686000 0.188000 13.502001
v -3.250000 0.000000 13.502001
v -4.686000 0.188000 9.836000
v -5.634000 0.612000 9.742001
v -20.846001 5.000000 -2.522000
v -17.272001 5.000000 -5.336000
v -25.000002 5.000000 -11.152000
v -24.928001 5.000000 -9.176001
v -20.744001 5.000000 -10.994000
v -20.804001 5.000000 -12.672001
v -24.664001 5.000000 -13.102000
v -20.338001 5.000000 -9.360001
v -24.452002 5.000000 -7.254000
v -23.588001 5.000000 -5.460000
v -5.902000 0.730000 9.660001
v -3.250000 0.000000 10.500001
v -3.250000 -0.002000 10.500001
v -4.686000 0.188000 10.500001
v -5.068000 0.188000 10.500001
v -3.250000 0.000000 14.500001
v -3.250000 -0.002000 14.500001
v -4.686000 0.188000 14.500001
v -5.068000 0.188000 14.500001
v -5.902000 0.730000 13.502001
v -6.610000 0.730000 13.502001
v -6.716001 1.542000 9.414001
v -8.166000 -0.002000 8.974000
v -5.902000 0.730000 10.500001
v -6.610000 0.730000 10.500001
v -5.902000 0.730000 14.500001
v -6.610000 0.730000 14.500001
v 3.074000 0.000000 -8.144000
v -7.000000 2.500000 13.502001
v -7.640000 1.542000 13.502001
v -6.716001 1.542000 13.502001
v -6.716001 1.542000 10.500001
v -7.640000 1.542000 10.500001
v -1.816000 4.808000 44.252003
v -1.816000 4.808000 37.492001
v -2.008000 4.834000 44.244003
v -6.716001 1.542000 14.500001
v -0.598000 4.268000 44.296001
v -1.554000 4.692000 37.500000
v -0.598000 4.268000 37.346001
v -0.330000 3.998000 44.306004
v -0.598000 0.730000 44.296001
v -0.598000 0.730000 37.346001
v -7.000000 2.500000 14.500001
v -1.816000 0.188000 44.252003
v -1.554000 0.306000 37.500000
v -7.000000 2.500000 9.328000
v -7.000000 2.500000 10.500001
v -2.500000 0.098000 37.470001
v -1.816000 0.188000 37.492001
v -3.000000 0.032000 43.998001
v -2.008000 0.164000 44.244003
v -6.610000 4.268000 13.502001
v -7.640000 3.456000 13.502001
v -6.716001 3.456000 13.502001
v -3.250000 5.000000 9.978001
v -7.640000 3.456000 10.500001
v -6.610000 4.268000 10.500001
v -6.716001 3.456000 10.500001
v -8.000000 2.500000 10.500001
v -16.374001 0.000000 -4.812000
v -8.000000 2.500000 14.500001
v -7.640000 3.456000 14.500001
v -12.546000 -0.002000 -13.044001
v -10.500001 -0.002000 -14.724001
v -9.720000 -0.002000 -10.220000
v -8.280001 -0.002000 -11.400001
v -6.716001 3.456000 14.500001
v -11.780001 -0.002000 -7.136000
v -14.226001 -0.002000 -10.998000
v -10.902000 -0.002000 -8.778001
v -12.320001 -0.002000 -5.354000
v -16.242001 -0.002000 -6.132000
v -6.716001 3.456000 9.414001
v -12.504001 -0.002000 -3.498000
v -11.780001 -0.002000 0.138000
v -16.242001 -0.002000 -0.864000
v -12.320001 -0.002000 -1.646000
v -5.902000 4.268000 13.502001
v -5.068000 4.808000 13.502001
v -15.474001 -0.002000 -8.666000
v -16.502001 -0.002000 -3.498000
v -5.902000 4.268000 9.660001
v -5.634000 4.386000 9.742001
v -5.902000 4.268000 10.500001
v -10.902000 -0.002000 1.780000
v -14.226001 -0.002000 4.000000
v -6.610000 4.268000 14.500001
v -5.902000 4.268000 14.500001
v -9.720000 -0.002000 3.220000
v -8.280001 -0.002000 4.402000
v -10.500001 -0.002000 7.726000
v -15.474001 -0.002000 1.666000
v -12.546000 -0.002000 6.046000
v -13.356001 0.000000 -20.578001
v -14.700001 0.000000 -20.270000
v -13.704000 0.000000 -20.630001
v -16.314001 0.000000 -19.566000
v -15.788001 0.000000 -20.552000
v -4.686000 4.808000 13.502001
v -3.000000 5.000000 10.002001
v -14.700001 5.000000 -20.270000
v -13.356001 5.000000 -20.578001
v -13.704000 5.000000 -20.630001
v -4.686000 4.808000 9.836000
v -15.788001 5.000000 -20.552000
v -4.686000 4.808000 10.500001
v -5.068000 4.808000 10.500001
v -4.686000 4.808000 14.500001
v -5.068000 4.808000 14.500001
v -4.686000 4.808000 17.500000
v -4.686000 4.808000 35.000000
v -3.286000 4.996000 13.502001
v -3.286000 4.996000 10.500001
v -8.076000 5.000000 -1.910000
v -8.968000 5.000000 -2.746000
v -10.732000 5.000000 -0.220000
v -2.500000 4.900000 37.470001
v -3.286000 4.996000 14.500001
v -7.186000 0.000000 2.164000
v -12.092001 5.000000 -1.888000
v -9.496000 5.000000 -3.498000
v -9.076000 5.000000 1.146000
v -3.216000 4.996000 13.502001
v -1.816000 4.808000 13.502001
v -1.432000 4.808000 13.502001
v -8.968000 5.000000 -4.254000
v -12.092001 5.000000 -5.110000
v -10.732000 5.000000 -6.776000
v -3.000000 4.966000 10.002001
v -1.816000 4.808000 9.886001
v -12.402000 5.000000 -4.526000
v -1.432000 4.808000 10.500001
v -1.816000 4.808000 10.500001
v -3.216000 4.996000 10.500001
v -8.076000 5.000000 -5.088000
v -1.432000 4.808000 14.500001
v -1.816000 4.808000 14.500001
v -3.216000 4.996000 14.500001
v -1.432000 4.808000 17.500000
v -12.402000 5.000000 -2.470000
v -8.280001 5.000000 -11.400001
v -10.500001 5.000000 -14.724001
v -9.720000 5.000000 -10.220000
v -12.546000 5.000000 -13.044001
v -14.226001 5.000000 -10.998000
v -10.902000 5.000000 -8.778001
v -11.780001 5.000000 -7.136000
v -15.474001 5.000000 -8.666000
v -16.242001 5.000000 -0.864000
v -16.242001 5.000000 -6.132000
v -12.320001 5.000000 -5.354000
v -1.816000 4.808000 17.500000
v -0.598000 4.268000 17.500000
v 0.214000 3.456000 17.500000
v -0.598000 4.268000 13.502001
v -12.320001 5.000000 -1.646000
v -0.598000 4.268000 9.764001
v -15.474001 5.000000 1.666000
v -11.780001 5.000000 0.138000
v -1.684000 4.750000 34.212002
v -0.598000 4.268000 10.500001
v 0.108000 4.268000 10.500001
v -8.280001 5.000000 4.402000
v -9.720000 5.000000 3.220000
v -10.500001 5.000000 7.726000
v -0.598000 4.268000 14.500001
v 0.108000 4.268000 14.500001
v -10.902000 5.000000 1.780000
v -14.226001 5.000000 4.000000
v -12.546000 5.000000 6.046000
v -16.182001 0.000000 -0.666000
v -16.242001 0.000000 -0.864000
v -7.184000 0.000000 -9.162001
v -16.182001 5.000000 -0.666000
v 0.214000 3.456000 9.566000
v -0.366000 4.036000 9.742001
v 0.214000 3.456000 19.108002
v 0.000000 3.670000 19.000000
v 0.214000 3.456000 13.502001
v 0.498000 2.500000 13.502001
v -16.374001 5.000000 -4.812000
v 0.498000 2.500000 19.250000
v 0.498000 2.500000 17.500000
v -2.500000 0.098000 34.022003
v 0.108000 0.730000 17.500000
v 0.214000 1.542000 17.500000
v 0.108000 0.730000 13.502001
v 0.214000 1.542000 13.502001
v 0.214000 1.542000 9.566000
v 0.108000 0.730000 10.500001
v 0.214000 1.542000 10.500001
v -8.166000 5.000000 -15.972001
v -8.166000 -0.002000 -15.972001
v 0.108000 0.730000 14.500001
v 0.214000 1.542000 14.500001
v 0.214000 1.542000 19.108002
v -1.432000 0.188000 17.500000
v -0.598000 0.730000 13.502001
v -1.432000 0.188000 13.502001
v -8.076000 0.000000 -1.910000
v -10.732000 0.000000 -0.220000
v -8.968000 0.000000 -2.746000
v -0.598000 0.730000 9.764001
v -0.598000 0.730000 10.500001
v -1.432000 0.188000 14.500001
v -0.598000 0.730000 14.500001
v -12.504001 0.000000 -3.498000
v -9.496000 0.000000 -3.498000
v -12.402000 0.000000 -2.470000
v -12.092001 0.000000 -1.888000
v 0.000000 1.328000 19.000000
v -5.902000 0.730000 17.500000
v -4.686000 0.188000 17.500000
v -5.294000 0.460000 35.000000
v -1.816000 0.188000 17.500000
v -12.402000 0.000000 -4.526000
v -12.092001 0.000000 -5.110000
v -1.816000 0.188000 13.502001
v 4.500000 5.000000 7.726000
v -1.816000 0.188000 9.886001
v 4.900000 5.000000 1.780000
v -1.432000 0.188000 10.500001
v -1.816000 0.188000 10.500001
v -8.076000 0.000000 -5.088000
v -8.968000 0.000000 -4.254000
v -10.732000 0.000000 -6.776000
v -5.294000 4.538000 35.000000
v -5.902000 4.268000 17.500000
v -5.902000 4.268000 35.000000
v 5.780000 5.000000 0.138000
v -1.816000 0.188000 14.500001
v -9.076000 0.000000 -8.144000
v -3.250000 0.000000 17.500000
v -3.968000 0.094000 35.000000
v -9.076000 5.000000 -8.144000
v -4.686000 0.188000 35.000000
v 4.730000 5.000000 -0.220000
v 3.074000 5.000000 1.146000
v -6.274000 3.896000 22.864000
v 0.000000 3.998000 19.000000
v 0.000000 0.998000 19.000000
v 2.074000 5.000000 -1.910000
v 2.966000 5.000000 -2.746000
v -5.902000 0.730000 35.000000
v 6.400000 5.000000 -2.472000
v 3.494000 5.000000 -3.498000
v 6.090000 5.000000 -1.888000
v -3.286000 4.996000 17.500000
v -10.000000 2.504000 20.994001
v -6.716001 1.542000 22.644001
v -7.000000 2.500000 22.500002
v 6.400000 5.000000 -4.528000
v -7.640000 1.542000 17.500000
v -7.000000 2.500000 17.500000
v -8.000000 2.500000 17.500000
v -7.640000 3.456000 17.500000
v -7.640000 1.542000 14.500001
v 2.966000 5.000000 -4.254000
v 4.730000 5.000000 -6.776000
v 2.074000 5.000000 -5.088000
v -3.250000 -0.002000 17.500000
v -5.068000 0.188000 17.500000
v 3.074000 5.000000 -8.144000
v -6.610000 0.730000 17.500000
v -6.716001 1.542000 17.500000
v 6.090000 5.000000 -5.110000
v -6.716001 1.542000 19.358002
v -6.276000 1.102000 19.138000
v 9.472000 5.000000 -8.666000
v 8.224000 5.000000 -10.998000
v 5.780000 5.000000 -7.136000
v -7.000000 2.500000 19.500000
v 4.900000 5.000000 -8.778001
v -6.716001 3.456000 17.500000
v -6.610000 4.268000 17.500000
v 3.718000 5.000000 -10.220000
v 6.544000 5.000000 -13.044001
v 4.500000 5.000000 -14.724001
v -5.068000 4.808000 17.500000
v -6.716001 3.456000 19.358002
v 6.320000 5.000000 -1.646000
v 10.240001 5.000000 -0.864000
v -4.684000 0.188000 35.000000
v -6.274000 3.896000 19.136002
v 2.164000 5.000000 -15.972001
v 10.240001 5.000000 -6.132000
v 6.320000 5.000000 -5.354000
v 10.500001 5.000000 -3.498000
v -9.076000 0.000000 1.146000
v -3.216000 4.996000 17.500000
v -3.254000 5.000000 52.500004
v -8.000000 2.500000 13.502001
v -7.000000 2.500000 52.500004
v -3.250000 0.000000 35.000000
v 0.214000 2.500000 54.032001
v -0.598000 2.500000 55.330002
v 2.278000 5.000000 -11.400001
v -1.924000 4.632000 54.032001
v -0.800000 4.132000 54.032001
v 7.702000 5.000000 -20.628000
v 7.352000 5.000000 -20.576000
v 8.698000 5.000000 -20.270000
v 10.312000 5.000000 -19.566000
v 9.788000 5.000000 -20.550001
v -3.250000 4.808000 54.032001
v 12.960001 5.000000 -17.342001
v 13.716001 5.000000 -19.260000
v 11.750001 5.000000 -18.576000
v 11.816001 5.000000 -20.088001
v 15.408001 5.000000 -18.096001
v 13.894001 5.000000 -15.908001
v 14.516001 5.000000 -14.332001
v 16.832001 5.000000 -16.642000
v 9.472000 -0.002000 -8.666000
v 19.000000 5.000000 -11.150001
v 18.662001 5.000000 -13.102000
v 14.802001 5.000000 -12.672001
v 12.566001 5.000000 -6.474000
v 16.370001 5.000000 -3.860000
v 13.602000 5.000000 -7.834001
v 11.272000 5.000000 -5.334000
v 14.844001 5.000000 -2.520000
v -1.816000 2.500000 56.196003
v 17.930000 5.000000 -14.956000
v 14.742001 5.000000 -10.994000
v 18.450001 5.000000 -7.254000
v 18.926001 5.000000 -9.174001
v 14.338000 5.000000 -9.358001
v 17.586000 5.000000 -5.460000
v 11.118001 5.000000 -0.806000
v 13.070001 5.000000 -1.488000
v 10.180000 5.000000 -0.666000
v 10.370001 5.000000 -4.810000
v 1.184000 5.000000 2.164000
v 0.636000 5.000000 5.280000
v -1.378000 5.000000 -0.456000
vn 0.0000 -1.0000 0.0000
vn 0.6249 0.6293 0.4619
vn 0.4582 0.4614 0.7597
vn 0.2871 0.6432 0.7099
vn 0.0000 1.0000 0.0000
vn 0.2918 0.0000 -0.9565
vn 0.4589 0.4588 0.7609
vn 0.1754 0.1754 0.9687
vn 0.1160 0.2599 0.9586
vn 0.0956 0.7273 0.6796
vn 0.0400 0.3046 0.9516
vn -0.3804 0.0000 0.9248
vn -0.0399 0.3046 0.9516
vn 0.9952 0.0000 0.0982
vn -0.1159 0.2597 0.9587
vn 0.9569 0.0000 0.2905
vn 0.9557 -0.0492 0.2901
vn 0.9570 0.0000 0.2900
vn -0.1757 0.1745 0.9689
vn 0.0000 0.0000 -1.0000
vn 0.6191 0.7853 0.0000
vn 0.9354 -0.3535 0.0000
vn 0.9074 0.0000 0.4203
vn 0.4029 -0.9056 0.1324
vn 0.9717 0.0000 0.2364
vn 0.9358 0.3524 0.0000
vn 0.6980 -0.6991 -0.1552
vn 0.4023 -0.9059 0.1323
vn 0.9361 -0.3518 0.0000
vn 0.9992 0.0000 0.0397
vn 0.3704 -0.8326 0.4119
vn 0.9881 0.0000 -0.1537
vn 0.9951 0.0000 -0.0986
vn 0.9665 0.2383 -0.0954
vn -0.9718 0.0000 -0.2359
vn -0.9068 0.0000 -0.4215
vn -0.9069 0.0000 -0.4215
vn -0.8074 0.0000 -0.5900
vn -0.6761 0.0000 -0.7369
vn -0.8914 -0.4447 0.0874
vn -0.9951 0.0000 0.0985
vn 0.3668 0.0000 0.9303
vn 0.5464 0.0000 0.8375
vn 0.6992 0.0000 0.7149
vn 0.8246 0.0000 0.5657
vn 0.6997 -0.6978 0.1533
vn 0.9162 0.0000 0.4007
vn 0.6242 -0.6286 0.4639
vn 0.6279 -0.6262 0.4622
vn 0.9751 0.0000 0.2217
vn 0.4578 -0.4610 0.7602
vn 0.9993 0.0000 0.0374
vn 0.9890 0.0000 -0.1478
vn 0.4596 -0.4596 0.7600
vn 0.1752 -0.1752 0.9688
vn 0.3467 0.0000 0.9380
vn 0.3479 0.0006 0.9375
vn -0.9951 0.0000 -0.0989
vn -0.8596 -0.5039 -0.0845
vn 0.5222 0.0000 0.8528
vn 0.6769 0.0000 0.7360
vn 0.8068 0.0000 0.5909
vn 0.7728 0.0000 0.6346
vn 0.6350 0.0000 0.7725
vn 0.2906 0.0000 0.9568
vn 0.3804 0.0000 -0.9248
vn -0.5226 0.0000 -0.8526
vn 0.3804 0.0000 0.9248
vn -0.6345 0.0000 -0.7730
vn -0.3476 0.0000 -0.9376
vn -0.7730 0.0000 -0.6345
vn -0.1150 -0.2603 0.9587
vn -0.1604 0.0000 -0.9870
vn -0.9750 0.0000 -0.2220
vn -0.9166 0.0000 -0.3998
vn 0.2905 0.0000 -0.9569
vn -0.8246 0.0000 -0.5658
vn -0.6996 0.0000 -0.7146
vn -0.5458 0.0000 -0.8379
vn 0.1211 -0.9160 0.3825
vn -0.2900 0.0000 0.9570
vn -0.3671 0.0000 -0.9302
vn -0.1705 0.0000 -0.9853
vn -0.0982 0.0000 -0.9952
vn 0.0982 0.0000 -0.9952
vn -0.0409 -0.3040 0.9518
vn 0.1290 -0.9841 0.1222
vn 0.1306 -0.9841 0.1208
vn 0.2897 0.0000 0.9571
vn 0.1216 -0.9161 0.3821
vn 0.0959 -0.7255 0.6816
vn 0.0989 0.0000 0.9951
vn 0.2905 0.0000 0.9569
vn 0.3734 -0.8320 0.4103
vn -0.0989 0.0000 0.9951
vn 0.7072 0.7070 -0.0053
vn 0.1315 0.9913 -0.0001
vn 0.0980 -0.7260 0.6807
vn -0.0956 0.0000 0.9954
vn -0.0931 -0.3193 0.9431
vn 0.0411 -0.3040 0.9518
vn 0.0988 0.0000 -0.9951
vn 0.7071 0.7071 -0.0003
vn 0.7081 0.7061 -0.0004
vn -0.0988 0.0000 -0.9951
vn 0.2897 0.0000 -0.9571
vn 0.2842 -0.6429 0.7112
vn 0.2882 -0.6421 0.7104
vn 0.7071 -0.7071 0.0000
vn 0.1151 -0.2604 0.9586
vn -0.2900 0.0000 -0.9570
vn 0.4059 -0.9139 0.0003
vn -0.4715 0.0000 -0.8818
vn 0.1300 -0.9915 -0.0002
vn 0.1104 -0.9939 0.0000
vn -0.4028 0.9056 0.1330
vn -0.4022 0.9058 0.1334
vn -0.3706 0.8332 0.4104
vn -0.3719 0.8330 0.4097
vn -0.2871 0.6431 0.7099
vn 0.7095 0.7047 0.0001
vn -0.0989 0.0000 -0.9951
vn -0.6968 0.7005 0.1541
vn 0.0989 0.0000 -0.9951
vn -0.0988 0.0000 0.9951
vn 0.0988 0.0000 0.9951
vn -0.9432 -0.2817 0.1761
vn 0.1348 0.9909 0.0000
vn 0.1333 0.9911 -0.0001
vn -0.5715 -0.1718 0.8024
vn -0.2080 -0.0625 0.9761
vn -0.1755 -0.1743 0.9689
vn -0.0973 0.7267 0.6800
vn -0.3804 0.0000 -0.9248
vn -0.2257 0.0000 -0.9742
vn -0.6979 0.6996 0.1531
vn -0.2257 0.0000 0.9742
vn 0.2257 0.0000 0.9742
vn -0.7062 -0.7080 0.0000
vn -0.6258 0.6280 0.4625
vn -0.6251 0.6285 0.4629
vn -0.4583 0.4599 0.7605
vn -0.4609 0.4579 0.7602
vn -0.9429 0.2829 0.1760
vn -0.9435 0.2811 0.1754
vn 0.7057 0.7085 -0.0001
vn -0.9433 0.2817 0.1758
vn -0.8213 0.2453 0.5151
vn 0.7057 -0.7085 0.0001
vn -0.8212 0.2454 0.5151
vn -0.5716 0.1708 0.8026
vn 0.4137 -0.9104 0.0006
vn 0.4057 -0.9140 0.0000
vn -0.5707 0.1725 0.8028
vn -0.2080 0.0629 0.9761
vn 0.9586 0.2848 0.0000
vn 0.9588 -0.2842 0.0000
vn -0.9432 -0.2816 0.1761
vn -0.8214 -0.2447 0.5151
vn -0.8214 -0.2453 0.5148
vn -0.5713 -0.1702 0.8029
vn 0.7008 0.7133 0.0000
vn -0.6987 -0.6987 0.1541
vn 0.7008 -0.7133 0.0000
vn -0.6979 -0.6996 0.1532
vn 0.3664 0.0000 0.9305
vn -0.6266 -0.6266 0.4634
vn 0.3636 0.0041 0.9315
vn 0.3636 -0.0041 0.9315
vn -0.6259 -0.6281 0.4623
vn -0.4598 -0.4569 0.7614
vn -0.4589 -0.4605 0.7599
vn 0.7071 0.7071 0.0000
vn -0.4035 -0.9053 0.1330
vn -0.4029 -0.9056 0.1323
vn -0.3731 -0.8312 0.4122
vn -0.9805 0.0000 0.1964
vn -0.3708 -0.8335 0.4096
vn 0.2257 0.0000 -0.9742
vn -0.2877 -0.6411 0.7115
vn -0.8318 0.0000 0.5550
vn -0.5556 0.0000 0.8314
vn -0.2851 -0.6449 0.7091
vn 0.3479 -0.0006 0.9375
vn 0.3439 0.0035 0.9390
vn -0.1306 -0.9839 0.1224
vn 0.5556 0.0000 0.8314
vn -0.1290 -0.9843 0.1208
vn 0.3439 -0.0035 0.9390
vn 0.8318 0.0000 0.5550
vn -0.1216 -0.9159 0.3825
vn 0.9808 0.0000 0.1950
vn -0.1209 -0.9163 0.3818
vn -0.0975 -0.7249 0.6819
vn 0.9809 0.0000 -0.1944
vn -0.0958 -0.7261 0.6809
vn 0.4484 0.0014 0.8938
vn 0.7095 -0.7047 0.0003
vn 0.4384 -0.0027 0.8988
vn 0.4493 0.0027 0.8934
vn 0.4484 -0.0014 0.8938
vn -0.1590 0.0000 -0.9873
vn -0.1581 -0.0012 -0.9874
vn 0.4439 0.0000 0.8961
vn 0.8314 0.0000 -0.5557
vn 0.4493 -0.0026 0.8934
vn -0.1601 -0.0001 -0.9871
vn 0.5556 0.0000 -0.8314
vn -0.1601 0.0001 -0.9871
vn -0.1687 -0.0006 -0.9857
vn -0.5556 0.0000 -0.8314
vn -0.1698 0.0000 -0.9855
vn -0.1687 0.0006 -0.9857
vn -0.8314 0.0000 -0.5557
vn -0.9806 0.0000 -0.1958
vn -0.9663 0.0000 0.2575
vn -0.7071 0.0000 0.7071
vn -0.2581 0.0000 0.9661
vn 0.2575 0.0000 0.9663
vn -1.0000 0.0000 0.0000
vn 0.7082 0.0000 0.7060
vn 0.9657 0.0000 0.2596
vn 0.9656 0.0000 -0.2601
vn 0.1313 0.9913 -0.0002
vn 0.7082 0.0000 -0.7060
vn 0.1312 -0.9913 0.0003
vn 0.2575 0.0000 -0.9663
vn -0.0366 0.0000 0.9993
vn -0.2581 0.0000 -0.9661
vn 0.1644 0.9864 0.0000
vn 0.4053 0.9142 0.0000
vn -0.7071 0.0000 -0.7071
vn 0.7081 -0.7061 -0.0004
vn -0.9661 0.0000 -0.2581
vn 0.4066 -0.9136 0.0000
vn 0.0000 0.0000 1.0000
vn -0.0985 -0.0008 0.9951
vn -0.0987 0.0000 0.9951
vn -0.2926 0.0000 0.9562
vn 0.1644 0.0000 0.9864
vn 0.1706 0.0012 0.9853
vn 0.1706 0.0016 0.9853
vn -0.3295 0.0000 0.9441
vn 0.1722 0.0000 0.9851
vn -0.0001 0.0000 -1.0000
vn -0.1039 -0.9946 0.0000
vn -0.5033 0.0000 0.8641
vn 0.1706 -0.0012 0.9853
vn 0.1706 -0.0016 0.9853
vn -0.6603 0.0000 0.7510
vn 0.1645 0.0000 0.9864
vn -0.7953 0.0000 0.6062
vn -0.9010 0.0000 0.4339
vn -0.1298 -0.9915 0.0000
vn -0.9707 0.0000 0.2404
vn -0.9993 0.0000 0.0364
vn -0.9855 0.0000 -0.1698
vn -0.9303 0.0000 -0.3669
vn -0.8380 0.0000 -0.5457
vn -0.2898 -0.0006 0.9571
vn -0.7140 0.0000 -0.7002
vn -0.5668 0.0000 -0.8239
vn -0.3316 -0.9434 0.0000
vn -0.4071 -0.9134 0.0000
vn -0.3995 0.0000 -0.9167
vn -0.4071 -0.9134 -0.0018
vn -0.4083 -0.9129 0.0000
vn -0.4030 -0.9152 0.0000
vn 0.1342 0.9910 0.0000
vn 0.1319 0.9913 -0.0001
vn 0.7140 0.0000 0.7001
vn 0.8379 0.0000 0.5458
vn 0.7058 0.7084 0.0003
vn 0.9303 0.0000 0.3667
vn 0.9855 0.0000 0.1698
vn -0.9588 -0.2842 0.0000
vn 0.9994 0.0000 -0.0357
vn 0.4066 -0.9136 -0.0002
vn 0.9705 0.0000 -0.2411
vn 0.9012 0.0000 -0.4335
vn 0.1305 -0.9915 -0.0000
vn 0.1318 -0.9913 0.0002
vn 0.7955 0.0000 -0.6060
vn 0.6598 0.0000 -0.7514
vn 0.5040 0.0000 -0.8637
vn -0.6191 0.7853 0.0000
vn -0.9586 0.2848 0.0000
vn -0.2898 0.0006 0.9571
vn -0.3305 0.9438 0.0000
vn -0.7062 0.7080 0.0000
vn -0.0985 0.0008 0.9951
vn -0.2903 -0.0009 0.9569
vn -0.0374 0.0000 -0.9993
vn 0.1478 0.0000 -0.9890
vn 0.2234 0.0000 0.9747
vn 0.3998 0.0000 0.9166
vn 0.5663 0.0000 0.8242
vn -0.2228 0.0000 -0.9749
vn -0.4059 0.9139 0.0000
vn -0.4059 0.9139 -0.0012
vn -0.4067 0.9136 0.0000
vn -0.1325 0.9912 0.0000
vn -0.4030 0.9152 0.0000
vn -0.1049 0.9945 0.0000
vn 0.1333 0.9911 0.0002
vn 0.1314 0.9913 0.0000
vn 0.4048 0.9144 0.0000
vn 0.4107 -0.9118 0.0000
vn -0.1104 0.9939 0.0000
vn -0.1331 0.9911 0.0000
vn -0.1324 0.9912 -0.0015
vn 0.1240 -0.9923 0.0000
vn -0.0321 0.0000 0.9995
vn -0.0317 0.0016 0.9995
vn -0.0305 0.0000 0.9995
vn -0.0322 0.0000 0.9995
vn -0.0317 -0.0016 0.9995
vn 0.4054 0.9141 0.0000
vn 0.0975 0.0000 0.9952
vn 0.0982 0.0045 0.9952
vn 0.7097 0.7045 0.0000
vn 0.1048 0.9945 0.0000
vn 0.4054 -0.9141 0.0000
vn 0.1596 0.0000 0.9872
vn 0.1594 0.0009 0.9872
vn 0.1605 0.0000 0.9870
vn 0.1331 0.9911 0.0000
vn 0.1594 -0.0009 0.9872
vn 0.1323 0.9912 0.0000
vn 0.1331 0.9911 -0.0020
vn 0.1349 0.9909 -0.0012
vn 0.1168 0.9932 0.0000
vn 0.1327 0.9912 0.0000
vn 0.0990 -0.0015 0.9951
vn 0.4057 0.9140 0.0000
vn 0.4023 0.9155 -0.0003
vn 0.3309 0.9437 0.0000
vn 0.7038 0.7104 0.0000
vn -0.1497 0.0000 0.9887
vn -0.9570 0.0000 0.2900
vn -0.9557 -0.0504 0.2901
vn 0.2904 0.0001 0.9569
vn -0.1581 0.0012 -0.9874
vn 0.0944 0.0000 0.9955
vn -0.9569 0.0000 0.2905
vn 0.0333 0.0000 -0.9994
vn 0.0332 0.0002 -0.9994
vn 0.0338 0.0000 -0.9994
vn -0.9952 0.0000 0.0982
vn 0.0332 -0.0002 -0.9994
vn 0.2278 0.0000 -0.9737
vn 0.2268 -0.0037 -0.9739
vn 0.2216 0.0000 -0.9751
vn 0.2268 0.0038 -0.9739
vn -0.9953 0.0000 -0.0970
vn -0.7595 -0.6462 -0.0750
vn -0.9950 0.0000 -0.0995
vn -0.9570 0.0000 -0.2900
vn 0.2904 -0.0001 0.9569
vn -0.8817 0.0000 -0.4718
vn -0.7728 0.0000 -0.6346
vn -0.6346 0.0000 -0.7728
vn 0.6191 -0.7853 0.0000
vn -0.4715 0.0000 -0.8819
vn -0.2903 0.0000 -0.9569
vn 0.1309 -0.9914 0.0000
vn 0.3320 -0.9433 0.0000
vn -0.4071 -0.9134 0.0001
vn 0.0982 -0.0046 0.9952
vn 0.0990 0.0015 0.9951
vn -0.8833 0.0000 -0.4689
vn -0.7747 0.0000 -0.6324
vn -0.6369 0.0000 -0.7710
vn -0.4084 -0.9128 0.0000
vn 0.8819 0.0000 0.4715
vn -0.7750 0.0000 0.6319
vn -0.8826 0.0000 0.4701
vn 0.0001 0.0000 -1.0000
vn 0.1039 -0.9946 0.0000
vn 0.4712 0.0000 0.8820
vn 0.6838 0.0000 -0.7296
vn 0.6363 0.0000 0.7714
vn -0.7071 0.7071 0.0000
vn 0.8184 0.0000 -0.5746
vn 0.1300 -0.9915 0.0000
vn 0.1270 -0.9919 0.0000
vn 0.1300 -0.9915 0.0015
vn 0.1306 -0.9914 0.0000
vn 0.4460 -0.0005 -0.8950
vn -0.8814 0.0000 -0.4724
vn 0.4506 0.0000 -0.8927
vn 0.6830 0.0000 0.7305
vn 0.4456 -0.0025 -0.8952
vn 0.8198 0.0000 0.5726
vn 0.4460 0.0005 -0.8950
vn 0.1322 0.9912 0.0000
vn 0.4456 0.0025 -0.8952
vn 0.1302 -0.9915 -0.0000
vn -0.7052 -0.7090 0.0000
vn 0.4715 0.0000 0.8818
vn 0.6338 0.0000 0.7735
vn -0.7055 0.7087 0.0000
vn 0.7734 0.0000 0.6339
vn -0.1700 0.0003 -0.9855
vn -0.4497 -0.0031 0.8932
vn 0.8818 0.0000 0.4715
vn -0.4486 0.0013 0.8937
vn -0.4486 -0.0013 0.8937
vn -0.1700 -0.0003 -0.9855
vn -0.4503 0.0059 0.8928
vn 0.0416 0.0000 -0.9991
vn 0.0369 -0.0047 -0.9993
vn 0.0363 0.0004 -0.9993
vn -0.9361 -0.3518 0.0000
vn 0.9951 0.0000 0.0986
vn 0.9951 0.0000 0.0987
vn 0.9942 -0.0429 0.0986
vn 0.0373 0.0000 -0.9993
vn 0.0369 0.0048 -0.9993
vn 0.0363 -0.0004 -0.9993
vn 0.9929 0.0665 -0.0986
vn 0.9951 0.0000 -0.0987
vn 0.2407 0.0000 -0.9706
vn 0.9951 0.0000 -0.0990
vn 0.9571 0.0000 -0.2897
vn -0.6191 -0.7853 0.0000
vn -0.7071 -0.7071 0.0000
vn -0.7062 -0.7080 -0.0005
vn -0.4715 0.0000 0.8819
vn -0.6346 0.0000 0.7728
vn -0.7728 0.0000 0.6346
vn -0.8819 0.0000 0.4715
vn -0.7062 0.7080 0.0004
vn -0.6363 0.0000 0.7714
vn 0.8818 0.0000 -0.4715
vn 0.7730 0.0000 -0.6345
vn -0.4454 0.0023 -0.8953
vn -0.4458 0.0005 -0.8951
vn -0.4458 -0.0005 -0.8951
vn -0.4447 -0.0052 -0.8957
vn 0.6345 0.0000 -0.7730
vn -0.1329 0.9911 -0.0000
vn -0.1331 0.9911 0.0001
vn 0.6369 0.0000 -0.7710
vn 0.1331 0.9911 0.0001
vn 0.7067 0.7075 0.0004
vn 0.7083 0.7059 0.0000
vn -0.9580 0.2869 0.0000
vn -0.9588 0.2842 -0.0000
vn -0.3523 -0.9359 0.0000
vn 0.7750 0.0000 0.6319
vn -0.3500 0.9368 0.0000
vn -1.0000 0.0061 -0.0005
vn 0.3525 -0.9358 0.0000
vn 0.3500 0.9367 0.0000
vn -0.8184 0.0000 -0.5746
vn -0.6830 0.0000 0.7305
vn -0.5322 0.0000 0.8466
vn -0.8814 0.0000 0.4724
vn 0.6987 -0.6987 0.1541
vn 0.9432 -0.2817 0.1761
vn 0.9440 -0.2798 0.1750
vn 0.8218 -0.2454 0.5141
vn -0.4738 0.0000 -0.8806
vn 0.9434 0.2817 0.1749
vn -0.2921 0.0000 -0.9564
vn 0.8218 0.2454 0.5142
vn -0.6338 0.0000 0.7735
vn 0.5322 0.0000 -0.8466
vn 0.5322 0.0000 0.8466
vn -0.4715 0.0000 0.8818
vn 0.4017 0.9061 0.1324
vn -0.9571 0.0000 -0.2897
vn 0.4028 0.9055 0.1335
vn -0.9953 0.0000 -0.0964
vn -0.2905 0.0000 0.9569
vn -0.2902 0.0001 0.9570
vn -0.2902 -0.0001 0.9570
vn -0.2903 0.0009 0.9569
vn 0.3717 0.8324 0.4112
vn 0.3707 0.8333 0.4101
vn 0.2871 0.6431 0.7099
vn 0.5897 0.5897 0.5518
vn 0.1305 0.9837 0.1233
vn -0.1306 0.9837 0.1233
vn -0.2918 0.0000 0.9565
vn 0.0000 0.9724 0.2335
vn 0.1306 0.9839 0.1222
vn -0.4742 0.0000 0.8804
vn 0.1216 0.9164 0.3813
vn 0.4715 0.0000 -0.8818
vn 0.1228 0.9158 0.3823
vn -0.9358 0.3524 0.0000
vn 0.0974 0.7260 0.6807
vn -0.1319 0.9837 0.1225
vn -0.1227 0.9163 0.3812
vn -0.1216 0.9161 0.3819
vn -0.0951 0.7262 0.6809
vn 0.8218 0.2456 0.5141
vn 0.8221 -0.2449 0.5139
vn 0.5710 -0.1701 0.8031
vn 0.5718 -0.1687 0.8029
vn 0.2083 -0.0615 0.9761
vn 0.9437 0.2803 0.1758
vn 0.6978 0.6997 0.1531
vn 0.5711 0.1694 0.8032
vn 0.5712 0.1707 0.8029
vn 0.2083 0.0618 0.9761
vn 0.6987 0.6987 0.1541
vn 0.6990 0.6983 0.1540
vn 0.6258 0.6275 0.4633
vn 0.7144 0.0000 -0.6997
vn 0.5668 0.0000 -0.8239
vn 0.3995 0.0000 -0.9167
vn 0.2221 0.0000 -0.9750
vn 0.0374 0.0000 -0.9993
vn -0.1470 0.0000 -0.9891
vn -0.1469 0.0000 -0.9891
vn -0.2217 0.0000 0.9751
vn -0.3998 0.0000 0.9166
vn -0.5671 0.0000 0.8237
vn -0.7140 0.0000 0.7001
vn -0.5322 0.0000 -0.8466
vn -0.6838 0.0000 -0.7296
vn 0.1476 0.0000 0.9890
vn 0.3298 0.0000 0.9440
vn 0.5028 0.0000 0.8644
vn 0.6598 0.0000 0.7514
vn 0.7962 0.0000 0.6051
vn 0.9010 0.0000 0.4339
vn 0.9706 0.0000 0.2406
vn 0.9853 0.0000 -0.1706
vn 0.9301 0.0000 -0.3672
vn 0.8380 0.0000 -0.5457
vn 0.4712 0.0000 -0.8820
vn 0.6350 0.0000 -0.7725
vn 0.7728 0.0000 -0.6346
vn 0.8817 0.0000 -0.4718
vn 0.9570 0.0000 -0.2900
vn 0.9952 0.0000 -0.0979
vn 0.4742 0.0000 -0.8804
vn 0.7747 0.0000 -0.6324
vn 0.8826 0.0000 -0.4701
vn -0.9953 0.0000 0.0964
vn -0.7734 0.0000 0.6339
vn -0.8379 0.0000 0.5458
vn -0.9302 0.0000 0.3671
vn -0.9855 0.0000 0.1698
vn -0.9994 0.0000 -0.0357
vn -0.9708 0.0000 -0.2397
vn -0.9005 0.0000 -0.4349
vn -0.7955 0.0000 -0.6060
vn -0.6610 0.0000 -0.7503
vn -0.5023 0.0000 -0.8647
vn -0.8198 0.0000 0.5726
vn 0.8833 0.0000 0.4689
vn 0.4742 0.0000 0.8804
vn 0.9352 0.3541 0.0000
vn 0.2904 -0.0002 0.9569
vn 0.2904 0.0002 0.9569
vn 0.2918 0.0000 0.9565
vn -0.1302 -0.9915 0.0000
vn -0.1300 -0.9915 0.0000
vn -0.4059 -0.9139 0.0000
vn -0.4071 -0.9134 -0.0001
vn 0.0000 1.0000 0.0001
vn 0.0041 0.0000 -1.0000
usemtl Material.001
s off
f 1//1 2//1 3//1
f 3//1 4//1 1//1
f 5//1 1//1 4//1
f 6//2 7//2 8//2
f 4//1 9//1 5//1
f 10//1 5//1 9//1
f 11//1 12//1 13//1
f 7//3 14//3 8//3
f 15//1 13//1 12//1
f 16//1 17//1 12//1
f 9//1 18//1 10//1
f 19//1 10//1 18//1
f 18//1 20//1 19//1
f 21//1 19//1 20//1
f 20//1 22//1 21//1
f 7//4 23//4 14//4
f 24//1 21//1 22//1
f 25//1 24//1 22//1
f 26//1 27//1 28//1
f 29//1 11//1 13//1
f 30//1 29//1 31//1
f 32//1 30//1 31//1
f 31//1 33//1 32//1
f 33//1 34//1 32//1
f 35//1 32//1 34//1
f 36//1 37//1 34//1
f 28//1 38//1 26//1
f 39//1 40//1 41//1
f 42//1 26//1 38//1
f 38//1 43//1 42//1
f 44//1 42//1 43//1
f 43//1 45//1 44//1
f 46//1 44//1 45//1
f 45//1 47//1 46//1
f 37//1 48//1 49//1
f 35//1 34//1 37//1
f 50//1 46//1 47//1
f 47//1 51//1 50//1
f 48//1 37//1 36//1
f 52//1 39//1 48//1
f 53//1 50//1 51//1
f 49//1 48//1 39//1
f 40//1 39//1 52//1
f 54//1 55//1 40//1
f 56//1 17//1 16//1
f 57//1 58//1 25//1
f 51//1 59//1 53//1
f 60//5 61//5 62//5
f 63//1 64//1 56//1
f 15//1 12//1 17//1
f 65//1 66//1 59//1
f 17//1 56//1 67//1
f 64//1 67//1 56//1
f 24//1 25//1 58//1
f 68//6 69//6 70//6
f 8//7 14//7 71//7
f 57//1 72//1 58//1
f 73//1 74//1 75//1
f 14//8 76//8 71//8
f 72//1 77//1 78//1
f 78//1 58//1 72//1
f 79//1 78//1 77//1
f 53//1 59//1 66//1
f 63//1 75//1 64//1
f 74//1 64//1 75//1
f 73//1 75//1 80//1
f 73//1 80//1 81//1
f 82//1 83//1 84//1
f 85//5 86//5 68//5
f 23//9 76//9 14//9
f 65//1 87//1 66//1
f 84//1 66//1 87//1
f 82//1 84//1 87//1
f 88//5 89//5 90//5
f 91//5 92//5 93//5
f 89//5 93//5 94//5
f 90//5 89//5 94//5
f 95//10 96//10 23//10
f 96//11 76//11 23//11
f 94//5 93//5 92//5
f 97//12 98//12 86//12
f 41//1 40//1 55//1
f 99//5 100//5 101//5
f 54//1 102//1 55//1
f 103//1 55//1 102//1
f 104//1 103//1 102//1
f 104//1 102//1 105//1
f 104//1 105//1 106//1
f 107//5 108//5 99//5
f 92//5 91//5 109//5
f 110//13 76//13 96//13
f 111//14 34//14 33//14
f 111//14 33//14 112//14
f 109//5 101//5 100//5
f 91//5 101//5 109//5
f 113//15 76//15 110//15
f 114//16 115//16 36//16
f 36//17 34//17 114//17
f 111//18 114//18 34//18
f 100//5 99//5 108//5
f 108//5 107//5 116//5
f 113//19 117//19 76//19
f 118//5 119//5 120//5
f 121//5 122//5 119//5
f 123//5 124//5 121//5
f 120//5 119//5 122//5
f 125//5 126//5 123//5
f 127//20 128//20 129//20
f 127//20 129//20 130//20
f 131//5 132//5 125//5
f 122//5 121//5 124//5
f 127//21 133//21 134//21
f 135//5 136//5 131//5
f 124//5 123//5 126//5
f 137//22 138//22 139//22
f 136//5 135//5 140//5
f 126//5 125//5 132//5
f 109//23 18//23 9//23
f 109//23 9//23 92//23
f 141//24 142//24 143//24
f 144//20 145//20 146//20
f 147//20 148//20 146//20
f 144//20 146//20 148//20
f 148//21 149//21 150//21
f 9//25 4//25 94//25
f 9//25 94//25 92//25
f 150//26 151//26 144//26
f 150//26 144//26 148//26
f 141//27 152//27 142//27
f 153//28 142//28 152//28
f 151//29 154//29 145//29
f 151//29 145//29 144//29
f 90//30 4//30 3//30
f 142//31 155//31 143//31
f 4//30 90//30 94//30
f 2//32 88//32 90//32
f 2//32 90//32 3//32
f 112//33 33//33 156//33
f 31//34 156//34 33//34
f 1//35 89//35 88//35
f 1//35 88//35 2//35
f 5//36 93//36 89//36
f 5//37 89//37 1//37
f 10//38 91//38 93//38
f 10//38 93//38 5//38
f 19//39 91//39 10//39
f 30//40 32//40 157//40
f 158//41 157//41 32//41
f 59//42 140//42 159//42
f 159//42 160//42 59//42
f 59//43 51//43 136//43
f 59//43 136//43 140//43
f 51//44 47//44 132//44
f 51//44 132//44 136//44
f 47//45 45//45 126//45
f 47//45 126//45 132//45
f 142//46 153//46 161//46
f 45//47 43//47 124//47
f 142//48 162//48 155//48
f 45//47 124//47 126//47
f 161//49 162//49 142//49
f 122//50 43//50 38//50
f 163//51 155//51 162//51
f 43//50 122//50 124//50
f 38//52 28//52 120//52
f 38//52 120//52 122//52
f 27//53 118//53 120//53
f 27//53 120//53 28//53
f 163//54 164//54 155//54
f 163//55 76//55 164//55
f 25//56 116//56 165//56
f 165//57 166//57 25//57
f 158//58 32//58 167//58
f 35//59 167//59 32//59
f 25//60 22//60 108//60
f 25//60 108//60 116//60
f 22//61 20//61 100//61
f 22//61 100//61 108//61
f 100//62 20//62 18//62
f 100//62 18//62 109//62
f 48//63 168//63 52//63
f 169//64 40//64 52//64
f 54//65 170//65 171//65
f 19//39 101//39 91//39
f 172//66 173//66 174//66
f 21//67 99//67 101//67
f 21//67 101//67 19//67
f 175//68 176//68 177//68
f 178//69 39//69 41//69
f 24//70 107//70 99//70
f 24//70 99//70 21//70
f 178//71 49//71 39//71
f 179//72 180//72 76//72
f 24//73 181//73 107//73
f 26//74 119//74 118//74
f 26//74 118//74 27//74
f 42//75 121//75 119//75
f 42//75 119//75 26//75
f 60//76 67//76 64//76
f 44//77 123//77 121//77
f 44//77 121//77 42//77
f 46//78 125//78 123//78
f 46//78 123//78 44//78
f 50//79 131//79 125//79
f 50//79 125//79 46//79
f 182//5 183//5 184//5
f 185//80 186//80 187//80
f 61//81 56//81 62//81
f 53//82 135//82 131//82
f 53//82 131//82 50//82
f 53//83 188//83 135//83
f 189//84 74//84 73//84
f 64//85 74//85 189//85
f 190//86 76//86 180//86
f 191//87 141//87 143//87
f 56//81 61//81 63//81
f 143//88 185//88 191//88
f 192//5 184//5 183//5
f 193//5 194//5 195//5
f 196//89 197//89 80//89
f 81//89 80//89 197//89
f 186//90 185//90 143//90
f 186//91 198//91 187//91
f 199//92 200//92 201//92
f 199//92 201//92 202//92
f 54//93 203//93 102//93
f 155//94 186//94 143//94
f 200//95 199//95 204//95
f 200//95 204//95 205//95
f 206//96 207//96 208//96
f 209//97 208//97 207//97
f 187//98 198//98 190//98
f 105//99 210//99 211//99
f 105//100 211//100 106//100
f 198//101 76//101 190//101
f 104//102 192//102 194//102
f 212//103 213//103 214//103
f 213//104 215//104 214//104
f 193//105 104//105 194//105
f 216//106 184//106 192//106
f 217//106 184//106 216//106
f 186//107 164//107 198//107
f 216//102 192//102 104//102
f 164//108 186//108 155//108
f 193//105 103//105 104//105
f 153//109 218//109 219//109
f 76//110 198//110 164//110
f 103//111 193//111 55//111
f 141//109 220//109 152//109
f 220//112 153//112 152//112
f 55//113 221//113 41//113
f 222//5 223//5 224//5
f 191//114 225//114 141//114
f 141//115 225//115 220//115
f 196//5 226//5 227//5
f 197//5 196//5 227//5
f 189//5 227//5 226//5
f 60//5 189//5 226//5
f 226//5 61//5 60//5
f 228//116 229//116 230//116
f 231//117 229//117 228//117
f 69//6 232//6 70//6
f 230//118 229//118 233//118
f 234//1 235//1 236//1
f 230//119 233//119 237//119
f 189//84 73//84 227//84
f 236//1 238//1 234//1
f 239//1 234//1 238//1
f 60//85 64//85 189//85
f 233//120 113//120 237//120
f 238//1 240//1 239//1
f 240//1 241//1 242//1
f 243//121 244//121 245//121
f 242//1 239//1 240//1
f 224//122 246//122 247//122
f 224//122 247//122 222//122
f 231//123 248//123 229//123
f 70//124 232//124 246//124
f 70//124 246//124 224//124
f 249//109 250//109 251//109
f 252//1 242//1 241//1
f 253//1 254//1 255//1
f 241//1 255//1 252//1
f 75//125 63//125 61//125
f 75//125 61//125 226//125
f 226//126 196//126 75//126
f 80//126 75//126 196//126
f 256//127 257//127 258//127
f 174//5 259//5 260//5
f 261//128 262//128 209//128
f 263//129 264//129 265//129
f 199//5 202//5 266//5
f 267//5 116//5 268//5
f 268//5 116//5 107//5
f 199//5 266//5 269//5
f 204//5 199//5 270//5
f 271//1 272//1 273//1
f 274//130 275//130 276//130
f 68//5 70//5 85//5
f 277//5 140//5 278//5
f 132//5 131//5 136//5
f 223//5 222//5 279//5
f 274//131 76//131 275//131
f 280//5 279//5 222//5
f 281//5 282//5 283//5
f 284//5 281//5 283//5
f 223//5 285//5 224//5
f 285//5 286//5 224//5
f 70//5 224//5 286//5
f 286//5 85//5 70//5
f 274//132 179//132 76//132
f 269//5 270//5 199//5
f 110//133 287//133 237//133
f 288//134 289//134 290//134
f 267//5 268//5 282//5
f 268//5 283//5 282//5
f 110//120 237//120 113//120
f 291//135 292//135 288//135
f 135//5 278//5 140//5
f 293//5 277//5 278//5
f 293//5 278//5 294//5
f 293//5 294//5 295//5
f 296//5 295//5 294//5
f 97//12 86//12 85//12
f 231//136 297//136 248//136
f 85//137 298//137 97//137
f 299//137 97//137 298//137
f 85//5 286//5 298//5
f 223//5 279//5 300//5
f 175//138 300//138 279//138
f 301//139 302//139 303//139
f 175//68 279//68 176//68
f 233//140 229//140 304//140
f 248//141 304//141 229//141
f 304//142 117//142 233//142
f 305//5 306//5 307//5
f 306//5 298//5 307//5
f 233//143 117//143 113//143
f 308//5 309//5 223//5
f 308//5 310//5 311//5
f 258//144 312//144 256//144
f 258//145 297//145 312//145
f 244//146 313//146 245//146
f 314//5 315//5 316//5
f 316//5 317//5 318//5
f 252//1 255//1 254//1
f 297//147 258//147 248//147
f 258//148 276//148 248//148
f 319//1 254//1 253//1
f 320//109 251//109 321//109
f 250//149 322//149 251//149
f 276//150 304//150 248//150
f 276//151 275//151 304//151
f 323//152 320//152 324//152
f 321//153 324//153 320//153
f 304//154 275//154 117//154
f 325//1 319//1 326//1
f 327//1 328//1 329//1
f 275//155 76//155 117//155
f 330//5 331//5 332//5
f 159//156 333//156 334//156
f 329//1 335//1 336//1
f 219//157 160//157 334//157
f 256//158 302//158 257//158
f 337//1 338//1 336//1
f 258//159 339//159 276//159
f 307//5 286//5 309//5
f 285//5 223//5 309//5
f 286//5 307//5 298//5
f 285//5 309//5 286//5
f 310//5 308//5 300//5
f 257//160 339//160 258//160
f 339//161 274//161 276//161
f 212//162 333//162 213//162
f 212//156 334//156 333//156
f 302//163 340//163 257//163
f 341//5 330//5 332//5
f 159//157 334//157 160//157
f 219//164 342//164 160//164
f 302//165 301//165 340//165
f 338//1 343//1 344//1
f 277//166 213//166 140//166
f 340//167 345//167 257//167
f 306//5 305//5 346//5
f 331//5 346//5 305//5
f 159//42 140//42 333//42
f 333//168 140//168 213//168
f 160//169 342//169 59//169
f 65//166 59//166 342//166
f 347//5 346//5 331//5
f 330//5 347//5 331//5
f 156//1 348//1 343//1
f 257//170 345//170 339//170
f 179//171 274//171 339//171
f 339//172 345//172 179//172
f 341//5 332//5 349//5
f 350//5 318//5 270//5
f 269//5 266//5 350//5
f 270//5 269//5 350//5
f 349//5 350//5 266//5
f 351//173 352//173 353//173
f 301//174 354//174 355//174
f 356//1 357//1 358//1
f 351//156 188//156 352//156
f 315//5 317//5 316//5
f 359//5 360//5 314//5
f 301//175 355//175 340//175
f 314//5 311//5 359//5
f 223//5 300//5 308//5
f 359//5 311//5 310//5
f 315//5 314//5 360//5
f 340//176 361//176 345//176
f 172//66 174//66 260//66
f 362//177 315//177 363//177
f 360//177 363//177 315//177
f 355//178 361//178 340//178
f 157//1 364//1 356//1
f 172//179 260//179 365//179
f 365//179 366//179 172//179
f 180//180 345//180 361//180
f 362//181 367//181 317//181
f 362//181 317//181 315//181
f 188//156 165//156 352//156
f 365//182 367//182 366//182
f 368//1 358//1 357//1
f 165//157 188//157 166//157
f 369//157 166//157 188//157
f 369//109 370//109 166//109
f 180//183 179//183 345//183
f 367//182 365//182 317//182
f 288//134 290//134 291//134
f 357//1 356//1 364//1
f 353//56 116//56 267//56
f 292//135 291//135 371//135
f 165//184 116//184 352//184
f 116//185 353//185 352//185
f 354//186 185//186 355//186
f 292//187 371//187 372//187
f 372//187 341//187 292//187
f 354//1 373//1 185//1
f 191//188 185//188 373//188
f 166//189 370//189 25//189
f 57//56 25//56 370//56
f 330//190 341//190 374//190
f 374//190 341//190 372//190
f 185//191 187//191 355//191
f 347//192 330//192 375//192
f 374//192 375//192 330//192
f 344//1 336//1 338//1
f 376//1 377//1 325//1
f 326//1 376//1 325//1
f 253//1 326//1 319//1
f 327//1 325//1 377//1
f 377//1 328//1 327//1
f 335//1 329//1 328//1
f 337//1 336//1 335//1
f 355//193 187//193 361//193
f 313//156 181//156 378//156
f 379//156 378//156 181//156
f 361//194 190//194 180//194
f 379//157 181//157 249//157
f 250//157 249//157 181//157
f 380//195 346//195 375//195
f 347//195 375//195 346//195
f 187//196 190//196 361//196
f 379//197 249//197 381//197
f 321//198 251//198 322//198
f 245//199 378//199 382//199
f 381//200 382//200 378//200
f 381//201 378//201 379//201
f 268//202 107//202 244//202
f 313//203 244//203 107//203
f 251//204 383//204 249//204
f 306//205 346//205 384//205
f 380//205 384//205 346//205
f 167//1 385//1 364//1
f 381//206 249//206 383//206
f 181//207 313//207 107//207
f 272//1 271//1 385//1
f 306//208 299//208 298//208
f 181//209 24//209 250//209
f 386//1 387//1 388//1
f 384//208 299//208 306//208
f 389//1 390//1 386//1
f 391//138 300//138 175//138
f 392//1 393//1 389//1
f 394//1 395//1 392//1
f 396//1 388//1 387//1
f 188//210 351//210 135//210
f 397//211 300//211 391//211
f 66//212 398//212 53//212
f 188//213 53//213 369//213
f 300//211 397//211 310//211
f 397//214 399//214 359//214
f 397//214 359//214 310//214
f 399//215 363//215 360//215
f 399//215 360//215 359//215
f 305//216 400//216 401//216
f 305//216 401//216 331//216
f 400//217 305//217 307//217
f 400//217 307//217 402//217
f 158//1 167//1 364//1
f 157//1 158//1 364//1
f 402//218 307//218 309//218
f 402//218 309//218 403//218
f 404//1 405//1 406//1
f 407//1 404//1 408//1
f 403//219 309//219 308//219
f 403//219 308//219 409//219
f 410//220 411//220 297//220
f 395//1 394//1 412//1
f 393//1 392//1 395//1
f 390//1 389//1 393//1
f 387//1 386//1 390//1
f 413//1 412//1 394//1
f 413//1 394//1 414//1
f 415//1 416//1 417//1
f 418//1 419//1 420//1
f 421//1 418//1 420//1
f 421//1 406//1 405//1
f 405//1 418//1 421//1
f 419//1 415//1 420//1
f 417//1 420//1 415//1
f 414//1 417//1 416//1
f 413//1 414//1 416//1
f 271//1 364//1 385//1
f 409//221 308//221 311//221
f 409//221 311//221 422//221
f 423//5 424//5 425//5
f 425//5 426//5 423//5
f 422//222 311//222 314//222
f 422//222 314//222 427//222
f 348//1 344//1 343//1
f 112//1 156//1 343//1
f 112//1 343//1 428//1
f 429//1 112//1 428//1
f 430//5 425//5 424//5
f 424//5 431//5 430//5
f 432//5 430//5 431//5
f 429//1 111//1 112//1
f 316//223 433//223 427//223
f 314//223 316//223 427//223
f 431//5 434//5 432//5
f 435//5 432//5 434//5
f 429//1 114//1 111//1
f 207//224 261//224 209//224
f 318//225 436//225 433//225
f 318//225 433//225 316//225
f 434//5 437//5 435//5
f 225//226 191//226 438//226
f 350//227 439//227 436//227
f 350//227 436//227 318//227
f 207//228 293//228 261//228
f 295//228 261//228 293//228
f 440//5 441//5 442//5
f 349//229 443//229 439//229
f 349//229 439//229 350//229
f 225//228 438//228 87//228
f 87//228 438//228 82//228
f 206//230 444//230 207//230
f 215//231 444//231 445//231
f 206//231 445//231 444//231
f 332//232 446//232 443//232
f 332//232 443//232 349//232
f 447//5 448//5 449//5
f 445//173 214//173 215//173
f 450//1 290//1 451//1
f 342//233 219//233 218//233
f 446//234 332//234 401//234
f 331//234 401//234 332//234
f 153//235 220//235 218//235
f 452//236 453//236 454//236
f 455//236 454//236 453//236
f 211//237 456//237 106//237
f 457//238 106//238 456//238
f 442//5 458//5 459//5
f 460//5 461//5 462//5
f 463//5 435//5 437//5
f 437//5 464//5 463//5
f 464//5 460//5 463//5
f 462//5 463//5 460//5
f 465//5 466//5 440//5
f 465//5 462//5 461//5
f 466//5 465//5 461//5
f 467//5 440//5 466//5
f 441//5 440//5 467//5
f 458//5 442//5 441//5
f 449//5 459//5 458//5
f 457//239 468//239 106//239
f 207//240 444//240 293//240
f 277//241 293//241 444//241
f 444//242 215//242 277//242
f 449//243 404//243 407//243
f 449//243 407//243 447//243
f 277//244 215//244 213//244
f 469//245 470//245 471//245
f 472//20 471//20 470//20
f 452//246 472//246 453//246
f 470//246 453//246 472//246
f 218//244 65//244 342//244
f 404//247 449//247 405//247
f 458//247 405//247 449//247
f 87//248 65//248 220//248
f 218//249 220//249 65//249
f 473//20 474//20 475//20
f 476//20 475//20 474//20
f 441//250 418//250 405//250
f 441//250 405//250 458//250
f 220//251 225//251 87//251
f 467//252 419//252 418//252
f 467//252 418//252 441//252
f 466//253 415//253 419//253
f 466//253 419//253 467//253
f 455//254 473//254 475//254
f 455//254 475//254 454//254
f 461//255 416//255 415//255
f 461//255 415//255 466//255
f 211//254 469//254 471//254
f 460//256 413//256 416//256
f 460//256 416//256 461//256
f 464//257 412//257 413//257
f 464//257 413//257 460//257
f 471//254 456//254 211//254
f 437//258 395//258 412//258
f 437//258 412//258 464//258
f 452//236 477//236 478//236
f 454//236 477//236 452//236
f 434//259 393//259 395//259
f 434//259 395//259 437//259
f 273//1 451//1 290//1
f 272//1 451//1 273//1
f 479//260 480//260 468//260
f 431//261 390//261 393//261
f 431//261 393//261 434//261
f 471//20 472//20 481//20
f 472//20 482//20 481//20
f 424//262 387//262 431//262
f 472//263 452//263 478//263
f 472//263 478//263 482//263
f 431//262 387//262 390//262
f 475//20 476//20 483//20
f 476//20 484//20 483//20
f 475//264 483//264 477//264
f 475//264 477//264 454//264
f 423//265 396//265 424//265
f 98//1 485//1 368//1
f 424//265 396//265 387//265
f 471//266 481//266 457//266
f 471//267 457//267 456//267
f 481//268 468//268 457//268
f 358//1 368//1 485//1
f 486//236 487//236 488//236
f 477//236 488//236 478//236
f 481//20 482//20 489//20
f 482//20 490//20 489//20
f 491//269 492//269 493//269
f 493//270 492//270 262//270
f 265//128 209//128 262//128
f 483//20 484//20 494//20
f 388//271 425//271 430//271
f 388//271 430//271 386//271
f 483//139 494//139 488//139
f 483//139 488//139 477//139
f 491//231 495//231 496//231
f 479//139 468//139 489//139
f 432//272 389//272 386//272
f 432//272 386//272 430//272
f 481//139 489//139 468//139
f 291//1 290//1 450//1
f 351//273 497//273 498//273
f 435//274 392//274 389//274
f 435//274 389//274 432//274
f 463//275 394//275 392//275
f 463//275 392//275 435//275
f 499//109 500//109 398//109
f 494//276 501//276 486//276
f 494//276 486//276 488//276
f 462//277 414//277 394//277
f 462//277 394//277 463//277
f 499//278 502//278 503//278
f 504//276 479//276 505//276
f 465//279 417//279 414//279
f 465//279 414//279 462//279
f 489//276 505//276 479//276
f 440//280 420//280 417//280
f 440//280 417//280 465//280
f 506//281 507//281 508//281
f 509//282 508//282 507//282
f 510//236 511//236 512//236
f 442//283 421//283 420//283
f 442//283 420//283 440//283
f 183//5 513//5 192//5
f 459//284 406//284 421//284
f 459//284 421//284 442//284
f 514//20 515//20 516//20
f 517//20 514//20 505//20
f 459//285 518//285 406//285
f 514//286 510//286 515//286
f 519//20 520//20 501//20
f 521//1 522//1 523//1
f 524//1 523//1 522//1
f 525//287 512//287 486//287
f 525//287 486//287 501//287
f 526//1 527//1 528//1
f 528//1 527//1 523//1
f 529//1 530//1 526//1
f 516//287 531//287 505//287
f 532//1 530//1 529//1
f 504//287 505//287 531//287
f 533//1 534//1 535//1
f 512//236 536//236 510//236
f 537//236 510//236 536//236
f 527//1 526//1 538//1
f 521//1 523//1 527//1
f 530//1 538//1 526//1
f 539//1 530//1 532//1
f 535//1 534//1 532//1
f 539//1 532//1 534//1
f 531//288 540//288 182//288
f 541//239 183//239 540//239
f 515//20 542//20 516//20
f 537//289 515//289 510//289
f 543//1 544//1 533//1
f 545//20 546//20 525//20
f 547//1 548//1 549//1
f 525//290 546//290 536//290
f 525//290 536//290 512//290
f 549//1 217//1 480//1
f 534//1 533//1 550//1
f 550//1 533//1 544//1
f 544//1 543//1 547//1
f 549//1 551//1 547//1
f 544//1 547//1 551//1
f 542//290 540//290 516//290
f 552//1 553//1 554//1
f 555//1 556//1 553//1
f 554//1 553//1 556//1
f 531//290 516//290 540//290
f 388//1 396//1 555//1
f 396//1 556//1 555//1
f 536//236 557//236 537//236
f 513//5 558//5 194//5
f 194//5 192//5 513//5
f 559//5 560//5 561//5
f 562//238 183//238 541//238
f 183//291 562//291 513//291
f 561//5 563//5 559//5
f 182//292 540//292 183//292
f 426//5 559//5 563//5
f 423//5 426//5 563//5
f 564//20 542//20 565//20
f 515//20 565//20 542//20
f 515//289 537//289 565//289
f 566//20 546//20 567//20
f 545//20 567//20 546//20
f 561//293 554//293 556//293
f 561//293 556//293 563//293
f 560//294 552//294 554//294
f 560//294 554//294 561//294
f 559//295 553//295 552//295
f 559//295 552//295 560//295
f 426//296 555//296 553//296
f 426//296 553//296 559//296
f 426//297 388//297 555//297
f 556//298 396//298 423//298
f 556//298 423//298 563//298
f 546//299 566//299 557//299
f 546//299 557//299 536//299
f 426//297 425//297 388//297
f 564//300 541//300 542//300
f 562//301 541//301 564//301
f 265//302 568//302 569//302
f 542//303 541//303 540//303
f 366//1 205//1 172//1
f 570//236 537//236 557//236
f 565//20 571//20 564//20
f 565//304 537//304 570//304
f 565//304 570//304 571//304
f 572//5 573//5 574//5
f 575//305 262//305 492//305
f 265//306 262//306 575//306
f 567//20 576//20 566//20
f 491//307 496//307 492//307
f 502//308 507//308 503//308
f 576//309 513//309 570//309
f 566//310 576//310 570//310
f 566//310 570//310 557//310
f 577//1 172//1 205//1
f 513//311 562//311 571//311
f 502//312 509//312 507//312
f 564//310 571//310 562//310
f 571//309 570//309 513//309
f 281//313 575//313 492//313
f 281//314 492//314 282//314
f 578//5 574//5 573//5
f 573//5 579//5 578//5
f 580//5 572//5 574//5
f 492//315 496//315 282//315
f 436//1 439//1 366//1
f 72//315 503//315 507//315
f 205//1 366//1 200//1
f 581//236 582//236 583//236
f 506//316 77//316 507//316
f 72//317 507//317 77//317
f 495//318 497//318 496//318
f 579//5 584//5 585//5
f 586//5 585//5 584//5
f 558//319 587//319 588//319
f 558//320 588//320 195//320
f 585//5 589//5 579//5
f 495//321 498//321 497//321
f 353//173 497//173 351//173
f 513//99 587//99 558//99
f 201//1 200//1 371//1
f 291//1 450//1 201//1
f 590//20 591//20 592//20
f 398//109 500//109 369//109
f 370//109 369//109 500//109
f 592//322 581//322 583//322
f 592//322 583//322 590//322
f 499//323 503//323 500//323
f 584//5 593//5 586//5
f 594//20 595//20 596//20
f 282//324 496//324 267//324
f 597//322 594//322 596//322
f 589//5 598//5 579//5
f 598//5 578//5 579//5
f 291//1 201//1 371//1
f 497//325 267//325 496//325
f 353//326 267//326 497//326
f 599//5 600//5 601//5
f 370//326 500//326 57//326
f 595//327 582//327 596//327
f 582//327 581//327 596//327
f 602//5 603//5 601//5
f 500//328 503//328 57//328
f 604//5 601//5 603//5
f 588//329 587//329 591//329
f 592//330 591//330 587//330
f 513//331 592//331 587//331
f 605//5 604//5 603//5
f 603//5 606//5 605//5
f 72//324 57//324 503//324
f 589//5 448//5 598//5
f 448//5 607//5 598//5
f 581//332 592//332 513//332
f 485//1 98//1 69//1
f 97//1 69//1 98//1
f 602//5 601//5 600//5
f 596//332 581//332 513//332
f 606//5 608//5 605//5
f 609//5 605//5 608//5
f 589//5 609//5 608//5
f 448//5 589//5 608//5
f 299//1 232//1 97//1
f 610//236 611//236 597//236
f 149//236 597//236 611//236
f 611//236 612//236 149//236
f 259//5 174//5 580//5
f 583//236 613//236 133//236
f 582//236 613//236 583//236
f 610//333 265//333 264//333
f 614//5 598//5 607//5
f 195//334 588//334 615//334
f 607//5 616//5 617//5
f 617//5 614//5 607//5
f 243//335 611//335 618//335
f 618//336 611//336 264//336
f 591//20 590//20 619//20
f 590//20 620//20 619//20
f 130//20 619//20 620//20
f 130//20 620//20 127//20
f 69//1 97//1 232//1
f 590//337 583//337 133//337
f 590//337 133//337 620//337
f 621//5 622//5 623//5
f 378//338 245//338 313//338
f 127//21 620//21 133//21
f 595//20 594//20 624//20
f 594//20 625//20 624//20
f 147//20 625//20 148//20
f 149//337 625//337 597//337
f 594//337 597//337 625//337
f 149//21 148//21 625//21
f 626//5 617//5 627//5
f 616//5 627//5 617//5
f 622//5 626//5 627//5
f 627//5 628//5 622//5
f 628//5 623//5 622//5
f 629//1 407//1 630//1
f 595//231 624//231 613//231
f 595//231 613//231 582//231
f 408//1 630//1 407//1
f 591//231 619//231 588//231
f 177//1 631//1 175//1
f 632//5 607//5 447//5
f 615//231 588//231 619//231
f 629//339 632//339 407//339
f 447//339 407//339 632//339
f 58//202 322//202 24//202
f 630//340 534//340 629//340
f 629//341 534//341 550//341
f 633//342 170//342 634//342
f 250//343 24//343 322//343
f 607//5 632//5 616//5
f 195//344 615//344 634//344
f 550//345 616//345 629//345
f 632//345 629//345 616//345
f 246//1 299//1 391//1
f 624//20 625//20 147//20
f 447//5 607//5 448//5
f 283//346 268//346 618//346
f 243//347 618//347 268//347
f 244//348 243//348 268//348
f 635//173 612//173 636//173
f 611//173 636//173 612//173
f 630//349 408//349 539//349
f 630//349 539//349 534//349
f 624//173 147//173 637//173
f 624//173 637//173 613//173
f 633//173 634//173 130//173
f 322//348 58//348 321//348
f 78//346 324//346 58//346
f 619//173 130//173 634//173
f 518//1 408//1 406//1
f 619//173 634//173 615//173
f 404//1 406//1 408//1
f 321//350 58//350 324//350
f 134//236 637//236 638//236
f 449//5 448//5 459//5
f 263//351 284//351 264//351
f 284//352 283//352 264//352
f 639//5 459//5 448//5
f 618//353 264//353 283//353
f 635//156 640//156 641//156
f 635//156 641//156 612//156
f 639//285 518//285 459//285
f 147//156 146//156 638//156
f 147//156 638//156 637//156
f 324//353 78//353 323//353
f 79//354 323//354 78//354
f 130//156 129//156 633//156
f 408//355 518//355 539//355
f 530//356 539//356 518//356
f 323//351 79//351 642//351
f 401//1 374//1 446//1
f 608//5 639//5 448//5
f 633//156 129//156 171//156
f 643//236 154//236 644//236
f 641//236 644//236 154//236
f 608//357 530//357 518//357
f 608//357 518//357 639//357
f 645//236 139//236 646//236
f 638//236 646//236 139//236
f 606//358 538//358 530//358
f 606//358 530//358 608//358
f 203//359 54//359 647//359
f 603//360 527//360 538//360
f 603//360 538//360 606//360
f 299//1 384//1 402//1
f 409//1 391//1 403//1
f 391//1 409//1 397//1
f 422//1 397//1 409//1
f 232//1 299//1 246//1
f 246//1 391//1 247//1
f 391//1 175//1 247//1
f 403//1 391//1 299//1
f 402//1 403//1 299//1
f 602//361 521//361 527//361
f 602//361 527//361 603//361
f 137//20 648//20 649//20
f 137//20 649//20 129//20
f 521//362 602//362 522//362
f 600//362 522//362 602//362
f 645//363 648//363 139//363
f 137//363 139//363 648//363
f 380//1 375//1 401//1
f 374//1 401//1 375//1
f 650//364 651//364 522//364
f 650//364 522//364 600//364
f 79//220 506//220 642//220
f 145//20 652//20 653//20
f 145//20 653//20 146//20
f 227//365 651//365 650//365
f 643//363 652//363 154//363
f 145//363 154//363 652//363
f 374//1 372//1 446//1
f 384//1 380//1 400//1
f 400//1 402//1 384//1
f 401//1 400//1 380//1
f 644//157 641//157 654//157
f 640//157 654//157 641//157
f 146//157 653//157 646//157
f 146//157 646//157 638//157
f 433//1 436//1 367//1
f 439//1 371//1 366//1
f 443//1 371//1 439//1
f 443//1 446//1 372//1
f 372//1 371//1 443//1
f 371//1 200//1 366//1
f 171//157 129//157 647//157
f 649//157 647//157 129//157
f 644//236 320//236 643//236
f 655//236 643//236 320//236
f 646//236 656//236 645//236
f 657//236 645//236 656//236
f 506//366 508//366 642//366
f 658//1 659//1 660//1
f 281//220 284//220 263//220
f 427//1 399//1 422//1
f 433//1 362//1 427//1
f 366//1 367//1 436//1
f 367//1 362//1 433//1
f 362//1 363//1 427//1
f 399//1 427//1 363//1
f 397//1 422//1 399//1
f 203//344 661//344 102//344
f 648//20 662//20 649//20
f 149//236 612//236 150//236
f 612//236 641//236 150//236
f 154//236 151//236 641//236
f 151//236 150//236 641//236
f 79//220 77//220 506//220
f 657//367 648//367 645//367
f 652//20 663//20 664//20
f 652//20 664//20 653//20
f 652//367 643//367 655//367
f 652//367 655//367 663//367
f 665//1 666//1 667//1
f 667//1 666//1 668//1
f 668//1 660//1 659//1
f 320//109 644//109 669//109
f 654//109 669//109 644//109
f 670//368 671//368 672//368
f 660//1 668//1 666//1
f 653//109 664//109 656//109
f 653//109 656//109 646//109
f 661//109 203//109 662//109
f 649//109 662//109 203//109
f 649//109 203//109 647//109
f 320//236 673//236 655//236
f 674//1 675//1 666//1
f 665//1 674//1 666//1
f 656//236 676//236 657//236
f 677//5 169//5 178//5
f 178//5 221//5 677//5
f 105//369 102//369 678//369
f 661//370 678//370 102//370
f 679//5 178//5 168//5
f 680//20 681//20 662//20
f 680//20 662//20 648//20
f 682//1 683//1 684//1
f 648//367 657//367 680//367
f 685//299 686//299 687//299
f 688//5 679//5 168//5
f 688//5 168//5 115//5
f 663//20 474//20 689//20
f 663//20 689//20 664//20
f 684//1 690//1 682//1
f 168//5 178//5 169//5
f 684//1 683//1 675//1
f 683//1 666//1 675//1
f 664//235 689//235 676//235
f 664//235 676//235 656//235
f 585//371 675//371 674//371
f 585//371 674//371 589//371
f 681//235 678//235 662//235
f 586//372 684//372 675//372
f 586//372 675//372 585//372
f 671//254 691//254 692//254
f 661//235 662//235 678//235
f 693//373 690//373 586//373
f 586//373 690//373 684//373
f 672//374 671//374 694//374
f 455//236 453//236 676//236
f 657//236 676//236 453//236
f 105//319 678//319 210//319
f 36//375 115//375 48//375
f 168//375 48//375 115//375
f 578//376 668//376 659//376
f 578//376 659//376 574//376
f 169//63 52//63 168//63
f 598//377 667//377 668//377
f 598//377 668//377 578//377
f 680//20 470//20 681//20
f 469//378 681//378 470//378
f 470//379 680//379 453//379
f 657//379 453//379 680//379
f 677//64 40//64 169//64
f 473//20 689//20 474//20
f 170//380 54//380 40//380
f 170//380 40//380 677//380
f 572//381 658//381 660//381
f 572//381 660//381 573//381
f 272//382 695//382 451//382
f 696//382 451//382 695//382
f 697//383 687//383 686//383
f 474//379 663//379 655//379
f 666//384 579//384 660//384
f 573//384 660//384 579//384
f 689//385 473//385 455//385
f 689//385 455//385 676//385
f 178//69 41//69 221//69
f 211//386 210//386 469//386
f 681//387 469//387 210//387
f 681//388 210//388 678//388
f 679//71 49//71 178//71
f 640//389 635//389 381//389
f 49//390 679//390 37//390
f 688//390 37//390 679//390
f 636//391 698//391 635//391
f 682//392 593//392 584//392
f 682//392 584//392 683//392
f 381//393 635//393 698//393
f 579//394 683//394 584//394
f 669//391 654//391 699//391
f 640//395 381//395 654//395
f 263//396 265//396 575//396
f 381//397 699//397 654//397
f 683//394 579//394 666//394
f 691//398 642//398 508//398
f 700//5 695//5 701//5
f 303//399 702//399 301//399
f 263//220 575//220 281//220
f 524//400 81//400 599//400
f 524//401 599//401 523//401
f 703//5 704//5 705//5
f 410//402 297//402 697//402
f 523//401 599//401 601//401
f 513//309 706//309 265//309
f 601//403 604//403 523//403
f 604//403 528//403 523//403
f 351//404 498//404 135//404
f 278//212 135//212 498//212
f 695//5 705//5 701//5
f 707//405 303//405 708//405
f 528//406 605//406 526//406
f 708//407 709//407 707//407
f 709//408 410//408 707//408
f 605//406 528//406 604//406
f 369//409 53//409 398//409
f 697//410 707//410 410//410
f 609//18 529//18 605//18
f 526//18 605//18 529//18
f 701//5 705//5 704//5
f 703//5 710//5 704//5
f 711//236 712//236 713//236
f 714//236 713//236 712//236
f 493//411 294//411 491//411
f 294//412 278//412 491//412
f 491//413 278//413 495//413
f 713//414 715//414 711//414
f 529//415 609//415 674//415
f 665//416 532//416 674//416
f 529//417 674//417 532//417
f 498//418 495//418 278//418
f 589//415 674//415 609//415
f 398//418 66//418 499//418
f 84//419 502//419 66//419
f 716//5 717//5 718//5
f 84//411 509//411 502//411
f 499//420 66//420 502//420
f 535//421 532//421 667//421
f 665//422 667//422 532//422
f 474//379 655//379 719//379
f 720//236 719//236 671//236
f 691//236 671//236 719//236
f 720//246 476//246 719//246
f 474//246 719//246 476//246
f 296//423 294//423 262//423
f 493//423 262//423 294//423
f 68//5 86//5 721//5
f 598//424 614//424 667//424
f 535//424 667//424 614//424
f 83//423 508//423 84//423
f 711//236 722//236 723//236
f 670//236 723//236 722//236
f 720//236 670//236 722//236
f 671//236 670//236 720//236
f 476//263 720//263 722//263
f 476//263 722//263 484//263
f 533//425 535//425 617//425
f 509//423 84//423 508//423
f 484//426 722//426 711//426
f 704//5 724//5 716//5
f 717//5 716//5 724//5
f 724//5 704//5 710//5
f 712//236 711//236 723//236
f 725//427 723//427 726//427
f 670//428 726//428 723//428
f 727//5 728//5 729//5
f 725//276 730//276 712//276
f 725//276 712//276 723//276
f 731//5 729//5 728//5
f 614//425 617//425 535//425
f 712//236 732//236 714//236
f 733//236 714//236 732//236
f 731//5 728//5 734//5
f 735//5 736//5 734//5
f 545//286 714//286 733//286
f 182//429 623//429 549//429
f 182//429 549//429 480//429
f 623//430 628//430 549//430
f 733//289 737//289 545//289
f 549//430 628//430 551//430
f 732//287 712//287 738//287
f 730//287 738//287 712//287
f 627//431 544//431 551//431
f 627//431 551//431 628//431
f 732//236 686//236 733//236
f 737//236 733//236 686//236
f 703//5 739//5 740//5
f 739//5 688//5 740//5
f 567//289 545//289 737//289
f 354//1 741//1 373//1
f 616//432 550//432 544//432
f 616//432 544//432 627//432
f 742//433 686//433 732//433
f 738//402 742//402 732//402
f 743//5 62//5 736//5
f 686//236 568//236 737//236
f 706//236 737//236 568//236
f 576//304 567//304 706//304
f 735//5 734//5 728//5
f 727//5 729//5 744//5
f 745//5 744//5 729//5
f 745//5 710//5 744//5
f 710//5 703//5 746//5
f 746//5 703//5 740//5
f 737//304 706//304 567//304
f 659//434 747//434 574//434
f 580//434 574//434 747//434
f 438//386 191//386 508//386
f 706//309 513//309 576//309
f 597//236 748//236 610//236
f 262//220 261//220 296//220
f 596//322 748//322 597//322
f 513//332 265//332 748//332
f 83//220 82//220 438//220
f 83//220 438//220 508//220
f 533//435 617//435 543//435
f 748//332 596//332 513//332
f 543//435 617//435 626//435
f 655//236 673//236 719//236
f 691//236 719//236 673//236
f 626//436 622//436 547//436
f 726//437 707//437 725//437
f 730//438 725//438 707//438
f 707//439 738//439 730//439
f 231//290 697//290 297//290
f 707//440 742//440 738//440
f 543//436 626//436 547//436
f 621//441 548//441 547//441
f 621//441 547//441 622//441
f 749//442 265//442 228//442
f 209//5 265//5 749//5
f 303//399 726//399 670//399
f 697//383 686//383 742//383
f 73//1 81//1 651//1
f 522//1 651//1 81//1
f 81//1 524//1 522//1
f 568//443 265//443 706//443
f 717//444 358//444 721//444
f 216//1 106//1 217//1
f 549//1 548//1 217//1
f 104//1 106//1 216//1
f 610//445 748//445 265//445
f 480//1 217//1 106//1
f 610//231 264//231 611//231
f 487//236 486//236 750//236
f 750//236 486//236 511//236
f 478//236 488//236 487//236
f 512//236 511//236 486//236
f 751//276 709//276 708//276
f 636//446 611//446 245//446
f 243//447 245//447 611//447
f 251//109 320//109 669//109
f 410//448 312//448 411//448
f 410//449 751//449 312//449
f 320//235 323//235 673//235
f 691//385 673//385 642//385
f 323//281 642//281 673//281
f 726//450 303//450 707//450
f 572//5 580//5 174//5
f 705//451 695//451 272//451
f 742//452 707//452 697//452
f 708//427 303//427 302//427
f 636//453 245//453 382//453
f 636//220 382//220 698//220
f 699//220 383//220 251//220
f 699//220 251//220 669//220
f 176//5 693//5 593//5
f 381//454 383//454 699//454
f 709//287 751//287 410//287
f 381//455 698//455 382//455
f 279//5 280//5 176//5
f 693//5 586//5 593//5
f 693//5 176//5 280//5
f 704//456 271//456 701//456
f 599//5 197//5 600//5
f 692//254 691//254 752//254
f 600//5 197//5 650//5
f 227//5 650//5 197//5
f 204//5 260//5 259//5
f 302//276 751//276 708//276
f 621//5 623//5 184//5
f 182//5 184//5 623//5
f 651//365 227//365 73//365
f 228//299 685//299 231//299
f 716//457 718//457 368//457
f 172//1 577//1 173//1
f 718//458 86//458 368//458
f 173//1 747//1 658//1
f 508//386 752//386 691//386
f 261//220 295//220 296//220
f 731//459 11//459 729//459
f 302//20 256//20 751//20
f 682//1 690//1 177//1
f 153//460 219//460 161//460
f 219//461 753//461 161//461
f 219//462 334//462 753//462
f 754//463 161//463 753//463
f 247//1 175//1 631//1
f 631//1 177//1 690//1
f 280//464 631//464 690//464
f 280//464 690//464 693//464
f 334//465 6//465 753//465
f 222//466 247//466 631//466
f 222//466 631//466 280//466
f 6//467 8//467 753//467
f 16//468 734//468 755//468
f 174//469 173//469 658//469
f 174//469 658//469 572//469
f 682//470 177//470 593//470
f 176//470 593//470 177//470
f 755//471 62//471 16//471
f 197//400 599//400 81//400
f 445//472 206//472 756//472
f 688//473 35//473 37//473
f 739//473 35//473 688//473
f 445//474 756//474 757//474
f 703//475 167//475 739//475
f 182//476 480//476 504//476
f 504//477 531//477 182//477
f 479//478 504//478 480//478
f 106//479 468//479 480//479
f 757//480 95//480 7//480
f 756//481 95//481 757//481
f 758//5 759//5 760//5
f 95//482 23//482 7//482
f 761//5 762//5 760//5
f 747//1 173//1 577//1
f 659//1 658//1 747//1
f 206//483 208//483 763//483
f 209//484 763//484 208//484
f 209//485 230//485 763//485
f 259//486 577//486 204//486
f 205//486 204//486 577//486
f 209//487 749//487 230//487
f 763//488 756//488 206//488
f 259//489 580//489 747//489
f 259//489 747//489 577//489
f 758//5 760//5 762//5
f 763//490 287//490 756//490
f 764//5 765//5 766//5
f 761//5 766//5 767//5
f 621//491 184//491 548//491
f 217//491 548//491 184//491
f 762//5 761//5 767//5
f 516//20 505//20 514//20
f 505//20 489//20 490//20
f 517//20 505//20 490//20
f 756//492 287//492 95//492
f 487//426 490//426 478//426
f 482//426 478//426 490//426
f 750//414 517//414 490//414
f 750//414 490//414 487//414
f 767//5 766//5 765//5
f 517//493 750//493 511//493
f 517//493 511//493 514//493
f 511//286 510//286 514//286
f 287//494 96//494 95//494
f 765//5 764//5 768//5
f 769//5 768//5 764//5
f 545//20 525//20 520//20
f 525//20 501//20 520//20
f 494//20 715//20 501//20
f 715//20 494//20 484//20
f 519//20 501//20 715//20
f 484//426 711//426 715//426
f 713//414 519//414 715//414
f 749//495 228//495 230//495
f 520//493 519//493 714//493
f 713//493 714//493 519//493
f 714//286 545//286 520//286
f 770//5 771//5 769//5
f 13//1 772//1 29//1
f 772//1 31//1 29//1
f 763//496 237//496 287//496
f 773//5 774//5 775//5
f 771//5 768//5 769//5
f 230//497 237//497 763//497
f 287//498 110//498 96//498
f 776//5 777//5 778//5
f 779//5 780//5 776//5
f 754//499 753//499 8//499
f 754//500 162//500 161//500
f 754//501 781//501 162//501
f 163//502 162//502 781//502
f 781//503 76//503 163//503
f 334//504 212//504 6//504
f 757//505 6//505 212//505
f 782//5 775//5 774//5
f 771//5 770//5 782//5
f 770//5 775//5 782//5
f 773//5 775//5 783//5
f 784//5 785//5 786//5
f 777//5 787//5 778//5
f 787//5 784//5 778//5
f 777//5 776//5 780//5
f 786//5 778//5 784//5
f 783//5 786//5 785//5
f 773//5 783//5 785//5
f 754//506 71//506 781//506
f 788//5 789//5 746//5
f 780//5 746//5 789//5
f 8//507 71//507 754//507
f 746//5 740//5 788//5
f 76//508 781//508 71//508
f 445//509 757//509 214//509
f 212//510 214//510 757//510
f 7//511 6//511 757//511
f 253//512 255//512 768//512
f 253//512 768//512 771//512
f 255//513 241//513 765//513
f 255//513 765//513 768//513
f 241//514 240//514 767//514
f 241//514 767//514 765//514
f 762//515 767//515 238//515
f 238//515 767//515 240//515
f 758//516 238//516 236//516
f 238//516 758//516 762//516
f 236//517 235//517 759//517
f 236//518 759//518 758//518
f 234//519 760//519 759//519
f 234//519 759//519 235//519
f 239//520 761//520 760//520
f 239//520 760//520 234//520
f 242//521 766//521 761//521
f 242//521 761//521 239//521
f 252//522 764//522 766//522
f 252//522 766//522 242//522
f 273//523 290//523 700//523
f 273//524 700//524 271//524
f 701//524 271//524 700//524
f 115//16 114//16 790//16
f 429//525 788//525 114//525
f 114//525 788//525 790//525
f 429//526 428//526 789//526
f 429//526 789//526 788//526
f 428//527 343//527 780//527
f 428//527 780//527 789//527
f 780//528 338//528 777//528
f 343//528 338//528 780//528
f 338//529 337//529 787//529
f 338//529 787//529 777//529
f 337//530 335//530 784//530
f 337//530 784//530 787//530
f 335//531 328//531 785//531
f 335//531 785//531 784//531
f 328//52 377//52 773//52
f 328//52 773//52 785//52
f 376//532 774//532 773//532
f 376//532 773//532 377//532
f 326//533 782//533 774//533
f 326//533 774//533 376//533
f 326//534 253//534 782//534
f 771//534 782//534 253//534
f 67//535 743//535 17//535
f 736//535 17//535 743//535
f 736//536 735//536 17//536
f 15//536 17//536 735//536
f 735//537 728//537 13//537
f 735//537 13//537 15//537
f 772//538 13//538 727//538
f 728//538 727//538 13//538
f 31//539 772//539 744//539
f 727//539 744//539 772//539
f 744//540 791//540 156//540
f 156//540 31//540 744//540
f 69//541 721//541 485//541
f 358//444 485//444 721//444
f 356//542 358//542 724//542
f 717//542 724//542 358//542
f 157//543 356//543 710//543
f 724//543 710//543 356//543
f 357//457 716//457 368//457
f 157//544 710//544 745//544
f 30//544 157//544 745//544
f 30//340 745//340 29//340
f 729//340 29//340 745//340
f 29//459 729//459 11//459
f 11//545 734//545 12//545
f 734//545 11//545 731//545
f 734//468 16//468 12//468
f 764//546 252//546 254//546
f 764//546 254//546 769//546
f 769//547 254//547 319//547
f 769//547 319//547 770//547
f 770//548 319//548 325//548
f 770//548 325//548 775//548
f 327//549 783//549 775//549
f 327//549 775//549 325//549
f 329//550 786//550 783//550
f 329//550 783//550 327//550
f 336//551 778//551 786//551
f 336//551 786//551 329//551
f 344//552 776//552 778//552
f 344//552 778//552 336//552
f 348//553 779//553 776//553
f 348//553 776//553 344//553
f 348//554 791//554 779//554
f 791//554 348//554 156//554
f 357//555 364//555 716//555
f 167//556 703//556 705//556
f 167//556 705//556 385//556
f 705//451 272//451 385//451
f 704//456 364//456 271//456
f 704//555 716//555 364//555
f 35//475 739//475 167//475
f 289//5 696//5 700//5
f 289//5 288//5 792//5
f 718//5 721//5 86//5
f 717//5 721//5 718//5
f 755//5 734//5 736//5
f 60//5 62//5 743//5
f 62//5 755//5 736//5
f 60//76 743//76 67//76
f 721//541 69//541 68//541
f 289//523 700//523 290//523
f 86//458 98//458 368//458
f 62//471 56//471 16//471
f 450//557 451//557 696//557
f 137//20 129//20 128//20
f 138//558 128//558 134//558
f 127//558 134//558 128//558
f 138//22 137//22 128//22
f 613//236 637//236 133//236
f 134//236 133//236 637//236
f 638//236 138//236 134//236
f 139//236 138//236 638//236
f 695//5 700//5 696//5
f 696//5 289//5 792//5
f 558//5 195//5 194//5
f 193//5 195//5 793//5
f 170//5 677//5 793//5
f 170//5 793//5 195//5
f 221//5 793//5 677//5
f 171//559 647//559 54//559
f 633//560 171//560 170//560
f 195//93 634//93 170//93
f 792//557 450//557 696//557
f 202//561 201//561 450//561
f 202//561 450//561 792//561
f 793//111 55//111 193//111
f 793//113 221//113 55//113
f 202//5 792//5 288//5
f 692//562 373//562 741//562
f 191//563 373//563 692//563
f 672//564 301//564 702//564
f 354//565 301//565 672//565
f 686//299 685//299 568//299
f 685//299 569//299 568//299
f 692//254 752//254 191//254
f 508//386 191//386 752//386
f 265//302 569//302 228//302
f 685//299 228//299 569//299
f 672//564 702//564 670//564
f 303//399 670//399 702//399
f 685//299 687//299 231//299
f 697//383 231//383 687//383
f 692//562 741//562 671//562
f 741//1 694//1 671//1
f 672//374 694//374 354//374
f 741//1 354//1 694//1
f 780//5 779//5 791//5
f 270//5 365//5 204//5
f 292//5 202//5 288//5
f 688//5 115//5 790//5
f 688//5 790//5 740//5
f 202//5 292//5 266//5
f 788//5 740//5 790//5
f 791//5 746//5 780//5
f 317//5 365//5 318//5
f 292//5 794//5 266//5
f 349//5 266//5 794//5
f 260//5 204//5 365//5
f 349//566 794//566 292//566
f 349//5 292//5 341//5
f 365//5 270//5 318//5
f 791//5 744//5 710//5
f 746//5 791//5 710//5
f 312//20 751//20 256//20
f 312//567 297//567 411//567
